<?xml version="1.0" encoding="utf-8"?>
<!-- Generator: Adobe Illustrator 16.0.0, SVG Export Plug-In . SVG Version: 6.00 Build 0)  -->
<!DOCTYPE svg PUBLIC "-//W3C//DTD SVG 1.1//EN" "http://www.w3.org/Graphics/SVG/1.1/DTD/svg11.dtd">
<svg version="1.1" id="Layer_1" xmlns="http://www.w3.org/2000/svg" xmlns:xlink="http://www.w3.org/1999/xlink" x="0px" y="0px"
	 width="1062.167px" height="773.4px" viewBox="0 0 1062.167 773.4" enable-background="new 0 0 1062.167 773.4"
	 xml:space="preserve">
<g>
	<line fill="#FFFFFF" x1="298.143" y1="132.726" x2="639.324" y2="238.688"/>
	<g>
		<path fill="#FFFFFF" d="M297.479,135.137c35.686,11.083,71.371,22.166,107.058,33.249c59.792,18.57,119.583,37.139,179.374,55.709
			c18.25,5.668,36.5,11.335,54.748,17.003c3.088,0.959,4.398-3.868,1.33-4.821c-35.686-11.083-71.371-22.166-107.057-33.249
			c-59.793-18.57-119.584-37.139-179.375-55.709c-18.25-5.668-36.5-11.335-54.749-17.003
			C295.72,129.356,294.41,134.184,297.479,135.137L297.479,135.137z"/>
	</g>
</g>
<g>
	<g>
		<path fill="#FFFFFF" d="M309.822,151.731c7.037,15.771,11.621,32.921,15.615,49.66c9.932,41.635,13.439,84.776,10.867,127.481
			c-3.206,53.21-16.83,105.476-39.24,153.798c-0.389,0.836,0.063,1.881,1.078,1.881c14.906,0,29.811,0,44.717,0
			c1.611,0,1.611-2.5,0-2.5c-14.906,0-29.811,0-44.717,0c0.36,0.627,0.721,1.254,1.08,1.881
			c41.59-89.676,51.323-191.861,27.511-287.783c-3.827-15.42-8.259-31.126-14.753-45.68C311.324,149,309.17,150.272,309.822,151.731
			L309.822,151.731z"/>
	</g>
</g>
<g>
	<g>
		<path fill="#FFFFFF" d="M638.244,247.731c11.875,20.16,20.076,46.356,15.805,69.716c-0.289,1.576,2.121,2.249,2.41,0.665
			c4.402-24.073-3.811-50.855-16.057-71.643C639.586,245.082,637.424,246.339,638.244,247.731L638.244,247.731z"/>
	</g>
</g>
<g>
	<g>
		<path fill="#FFFFFF" d="M700.117,302.318c6.27-6.348,18.613-14.42,28.393-11.783c6.842,1.845,9.439,14.774,10.52,20.732
			c0.189,1.044,1.828,1.242,2.283,0.298c5.492-11.353,8.52-23.782,8.844-36.395c0.133-5.161-4.982-9.101-8.039-12.954
			c-0.291-0.367-0.803-0.384-1.215-0.322c-8.639,1.302-17.275,2.603-25.912,3.905c-5.16,0.777-10.32,1.555-15.479,2.333
			c-1.635,0.246-3.771,0.018-4.631,1.631c-8.408,15.795-16.816,31.591-25.227,47.386c-0.758,1.422,1.4,2.685,2.158,1.262
			c5.479-10.29,10.957-20.58,16.436-30.87c2.795-5.25,5.59-10.5,8.385-15.75c0.211-0.398,0.424-0.796,0.635-1.195
			c-0.26,0.489-1.094,0.549-0.027,0.389c2.305-0.347,4.611-0.694,6.916-1.042c12.432-1.873,24.865-3.747,37.299-5.62
			c-1.283,0.193-0.994-0.2,0.209,1.318c1.139,1.438,2.279,2.875,3.42,4.313c0.898,1.133,1.797,2.267,2.695,3.399
			c0.598,0.751-0.141-1.026-0.121-0.378c0.016,0.525,0.012,1.052,0.008,1.578c-0.07,12.307-3.17,24.707-8.512,35.751
			c0.762,0.1,1.523,0.199,2.285,0.298c-1.275-7.04-4.086-19.236-11.588-22.209c-3.057-1.211-7.037-0.45-10.166,0.148
			c-8.225,1.571-15.516,6.116-21.336,12.01C697.217,301.698,698.984,303.466,700.117,302.318L700.117,302.318z"/>
	</g>
</g>
<g>
	<g>
		<path fill="#FFFFFF" d="M677.9,316.53c-45.973,0-91.945,0-137.918,0c-0.248,0-0.498,0-0.748,0c-1.322,0-1.604,1.64-0.631,2.33
			c2.912,2.065,5.824,4.13,8.736,6.196c1.867,1.324,6.123,5.795,8.561,5.795c5.877,0,11.754,0,17.631,0c16.789,0,33.58,0,50.369,0
			c1.613,0,1.613-2.5,0-2.5c-16.189,0-32.377,0-48.566,0c-6.42,0-12.84,0-19.26,0c0.664,0-0.291-0.36-1.174-0.986
			c-1.832-1.299-3.664-2.599-5.496-3.898c-3.18-2.255-6.359-4.51-9.539-6.766c-0.211,0.777-0.422,1.553-0.631,2.33
			c45.973,0,91.945,0,137.918,0c0.25,0,0.498,0,0.748,0C679.514,319.03,679.514,316.53,677.9,316.53L677.9,316.53z"/>
	</g>
</g>
<g>
	<g>
		<path fill="#FFFFFF" d="M610.234,328.351c-16.188,0-32.377,0-48.564,0c-1.326,0-1.596,1.637-0.631,2.33
			c3.113,2.233,6.227,4.466,9.34,6.7c1.535,1.102,3.648,3.471,5.68,3.471c6.963,0,13.926,0,20.889,0c16.465,0,32.928,0,49.391,0
			c1.611,0,1.611-2.5,0-2.5c-15.844,0-31.689,0-47.533,0c-7.355,0-14.713,0-22.068,0c-0.867,0-1.188-0.325-0.557,0.127
			c-1.266-0.907-2.529-1.814-3.795-2.722c-3.361-2.412-6.723-4.823-10.084-7.235c-0.209,0.777-0.42,1.553-0.631,2.33
			c16.188,0,32.377,0,48.564,0C611.846,330.851,611.846,328.351,610.234,328.351L610.234,328.351z"/>
	</g>
</g>
<g>
	<g>
		<path fill="#FFFFFF" d="M641.744,338.351c-19.744,0-39.486,0-59.23,0c-1,0-1.775,1.426-0.883,2.134
			c2.637,2.091,5.275,4.182,7.914,6.272c1.244,0.987,2.164,2.094,3.781,2.094c6.504,0,13.008,0,19.512,0c14.566,0,29.135,0,43.703,0
			c1.611,0,1.611-2.5,0-2.5c-13.617,0-27.234,0-40.852,0c-7.047,0-14.096,0-21.145,0c-0.584,0-1.168,0-1.752,0
			c-0.486,0,0.135-0.081,0.627,0.308c-0.502-0.397-1.004-0.794-1.504-1.192c-2.84-2.25-5.68-4.5-8.518-6.75
			c-0.295,0.711-0.59,1.422-0.885,2.134c19.744,0,39.486,0,59.23,0C643.355,340.851,643.355,338.351,641.744,338.351
			L641.744,338.351z"/>
	</g>
</g>
<g>
	<g>
		<path fill="#FFFFFF" d="M710.906,281.065c2.951-4.645,5.9-9.29,8.852-13.935c0.867-1.365-1.297-2.618-2.158-1.262
			c-2.951,4.645-5.902,9.29-8.852,13.935C707.881,281.168,710.045,282.421,710.906,281.065L710.906,281.065z"/>
	</g>
</g>
<g>
	<g>
		<path fill="#FFFFFF" d="M731.896,290.401c-9.105,1.946-16.373,10.012-20.977,17.611c-1.057,1.743-2.131,3.612-2.43,5.649
			c-0.652,4.462-1.303,8.925-1.955,13.387c-3.131,21.425-6.262,42.849-9.393,64.273c-9.191,62.909-18.385,125.817-27.576,188.726
			c-3.563,24.376-7.125,48.752-10.686,73.127c-0.977,6.676-1.951,13.352-2.928,20.027c-0.217,1.492-0.436,2.983-0.654,4.476
			c-0.197,1.358,1.168-0.539-0.451,0.579c-42.291,29.224-84.58,58.446-126.871,87.67c-2.242,1.549-4.484,3.099-6.727,4.647
			c-1.016,0.702,0.008,0.276-0.454,0.276c-3.033,0-6.066,0-9.1,0c-3.808,0-7.616,0-11.424,0c-1.289,0-2.577,0-3.866,0
			c-0.936,0-1.193-0.248-0.609,0.127c-1.811-1.162-3.621-2.324-5.43-3.486c-23.723-15.23-47.445-30.461-71.168-45.691
			c-15.301-9.823-30.6-19.646-45.9-29.469c-1.361-0.874-2.613,1.291-1.262,2.158c39.986,25.672,79.973,51.345,119.959,77.017
			c1.331,0.854,2.39,1.845,4.002,1.845c6.995,0,13.99,0,20.984,0c2.301,0,4.098,0.372,5.967-0.92c2.51-1.734,5.02-3.469,7.529-5.203
			c23.607-16.313,47.213-32.624,70.82-48.937c18.404-12.718,36.807-25.435,55.211-38.152c1.781-1.229,1.527-4.032,1.818-6.017
			c0.961-6.585,1.924-13.169,2.885-19.753c8.209-56.169,16.416-112.339,24.623-168.508c7.684-52.577,15.365-105.154,23.049-157.73
			c0.641-4.389,1.283-8.778,1.924-13.167c0.09-0.616,0.121-1.262,0.34-1.847c3.289-8.741,12.029-18.298,21.412-20.304
			C734.137,292.476,733.469,290.065,731.896,290.401L731.896,290.401z"/>
	</g>
</g>
<g>
	<g>
		<path fill="#FFFFFF" d="M709.826,319.03c29.889,0,59.777,0,89.666,0c-0.209-0.776-0.42-1.553-0.631-2.33
			c-5.301,3.761-10.604,7.521-15.906,11.281c-0.971,0.689-0.273,0.369-0.354,0.369c-0.701,0-1.402,0-2.105,0
			c-3.109,0-6.221,0-9.33,0c-13.33,0-26.66,0-39.988,0c-1.613,0-1.613,2.5,0,2.5c13.607,0,27.217,0,40.824,0
			c2.893,0,9.35,1.323,11.893-0.481c5.41-3.836,10.82-7.673,16.229-11.509c0.973-0.689,0.691-2.33-0.631-2.33
			c-29.889,0-59.777,0-89.666,0C708.215,316.53,708.215,319.03,709.826,319.03L709.826,319.03z"/>
	</g>
</g>
<g>
	<g>
		<path fill="#FFFFFF" d="M731.178,330.851c14.984,0,29.969,0,44.953,0c-0.211-0.776-0.422-1.553-0.631-2.33
			c-4.568,3.277-9.137,6.555-13.705,9.832c-0.191,0.138,0.793-0.002-0.273-0.002c-0.795,0-1.588,0-2.383,0c-2.873,0-5.746,0-8.619,0
			c-11.873,0-23.746,0-35.619,0c-1.611,0-1.611,2.5,0,2.5c12.162,0,24.322,0,36.484,0c2.752,0,5.504,0,8.258,0
			c0.818,0,2.496,0.32,3.24-0.214c4.627-3.319,9.252-6.638,13.879-9.957c0.965-0.692,0.695-2.33-0.631-2.33
			c-14.984,0-29.969,0-44.953,0C729.564,328.351,729.564,330.851,731.178,330.851L731.178,330.851z"/>
	</g>
</g>
<g>
	<g>
		<path fill="#FFFFFF" d="M714.9,340.851c13.463,0,26.924,0,40.387,0c-0.295-0.711-0.59-1.422-0.885-2.134
			c-3.34,2.647-6.68,5.294-10.021,7.942c1.109-0.878-0.414-0.308-1.658-0.308c-2.375,0-4.75,0-7.125,0c-9.51,0-19.02,0-28.531,0
			c-1.611,0-1.611,2.5,0,2.5c9.797,0,19.592,0,29.389,0c2.238,0,7.316,1.031,9.367-0.17c3.688-2.16,6.996-5.539,10.348-8.196
			c0.893-0.708,0.117-2.134-0.883-2.134c-13.463,0-26.924,0-40.387,0C713.289,338.351,713.289,340.851,714.9,340.851L714.9,340.851z
			"/>
	</g>
</g>
<g>
	<g>
		<path fill="#FFFFFF" d="M703.029,277.095c0.186-0.263-0.039,0.043-0.191,0.213c-0.309,0.343-0.654,0.648-1.01,0.941
			c-1.25,1.033-2.828,1.633-4.381,2.022c-1.564,0.392-0.9,2.802,0.664,2.411c2.652-0.665,5.453-2.029,7.076-4.325
			C706.121,277.037,703.953,275.79,703.029,277.095L703.029,277.095z"/>
	</g>
</g>
<g>
	<g>
		<path fill="#FFFFFF" d="M655.461,346.97c-6.242,9.57-12.482,19.139-18.725,28.709c0.211-0.323,1.604-0.495,0.334-0.495
			c-0.787,0-1.574,0-2.361,0c-3.137,0-6.273,0-9.412,0c-7.896,0-15.795,0-23.693,0c-2.725,0-5.451,0-8.178,0
			c-0.764,0-2.805-0.362-3.408,0.366c-0.703,0.846-1.42,1.678-2.139,2.51c-5.295,6.134-10.795,12.092-16.379,17.965
			c-54.9,57.753-119.908,108.556-192.732,141.525c-21.953,9.938-44.782,17.969-68.199,23.679c-1.565,0.382-0.901,2.792,0.665,2.41
			c87.098-21.237,164.49-73.749,229.608-133.917c16.943-15.655,33.328-32.056,48.453-49.488c0.834-0.96,1.662-1.923,2.477-2.9
			c-0.449,0.539-1.266,0.35-0.207,0.35c0.787,0,1.574,0,2.361,0c3.137,0,6.273,0,9.412,0c7.896,0,15.795,0,23.693,0
			c2.725,0,5.451,0,8.178,0c0.865,0,2.697,0.345,3.408-0.366c3.654-3.654,6.248-9.532,9.057-13.838
			c3.316-5.083,6.631-10.166,9.945-15.248C658.504,346.877,656.338,345.625,655.461,346.97L655.461,346.97z"/>
	</g>
</g>
<g>
	<g>
		<g>
			<path fill="#FFFFFF" d="M104.645,694.66c36.775,0,73.551,0,110.326,0c63.731,0,127.463,0,191.193,0c20.939,0,41.877,0,62.816,0
				c4.057,0,8.113,0,12.17,0c4.05,0,7.916-9.101,9.186-12.077c4.182-9.811,3.021-21.105-1.994-30.338
				c-4.771-8.781-13.624-14.765-23.239-16.934c-2.327-0.525-4.737-0.681-7.114-0.729c-3.248-0.065-3.159-0.068-4.402-2.997
				c-2.172-5.118-5.814-9.552-9.984-13.164c-3.635-3.146-7.955-5.34-12.474-6.898c-2.298-0.793-4.784-1.307-7.202-1.54
				c-1.026-0.099-2.564-6.392-3.013-7.419c-4.332-9.936-11.079-18.237-19.816-24.63c-17.723-12.968-41.966-13.746-61.11-3.597
				c-18.66,9.894-29.941,29.979-30.193,50.851c0.416-0.417,0.833-0.833,1.25-1.25c-32.344-0.014-64.688-0.028-97.03-0.042
				c-1.612-0.001-1.612,2.499,0,2.5c32.343,0.014,64.687,0.028,97.03,0.042c0.688,0,1.241-0.569,1.25-1.25
				c0.326-26.982,19.604-49.781,46.14-54.634c28.224-5.161,55.526,13.697,62.858,40.873c0.156,0.576,0.646,0.864,1.205,0.918
				c14.112,1.362,25.77,10.645,30.275,24.081c0.164,0.489,0.639,0.977,1.205,0.918c12.717-1.315,24.58,4.301,31.543,15.046
				c7.91,12.207,5.722,28.373-3.686,39.035c-1.399,1.587-6.164,0.734-8.549,0.734c-19.162,0-38.324,0-57.486,0
				c-63.209,0-126.416,0-189.625,0c-40.291,0-80.581,0-120.872,0c-0.22,0-0.438,0-0.657,0
				C103.033,692.16,103.033,694.66,104.645,694.66L104.645,694.66z"/>
		</g>
	</g>
	<g>
		<g>
			<path fill="#FFFFFF" d="M57.532,667.621c11.467,0,22.935,0,34.401,0c1.611,0,1.611-2.5,0-2.5c-11.467,0-22.935,0-34.401,0
				C55.92,665.121,55.92,667.621,57.532,667.621L57.532,667.621z"/>
		</g>
	</g>
	<g>
		<g>
			<path fill="#FFFFFF" d="M109.132,667.621c43.431,0,86.86,0,130.29,0c48.923,0,97.846,0,146.768,0c0.502,0,1.004,0,1.506,0
				c1.611,0,1.611-2.5,0-2.5c-43.431,0-86.861,0-130.291,0c-48.922,0-97.845,0-146.768,0c-0.502,0-1.003,0-1.505,0
				C107.52,665.121,107.52,667.621,109.132,667.621L109.132,667.621z"/>
		</g>
	</g>
</g>
<g>
	<line fill="#FFFFFF" x1="398.312" y1="1.209" x2="398.312" y2="67.388"/>
	<g>
		<path fill="#FFFFFF" d="M397.062,1.209c0,22.06,0,44.12,0,66.179c0,1.612,2.5,1.612,2.5,0c0-22.06,0-44.12,0-66.179
			C399.562-0.403,397.062-0.403,397.062,1.209L397.062,1.209z"/>
	</g>
</g>
<line fill="none" x1="704.109" y1="377.601" x2="714.252" y2="377.601"/>
<g>
	<g>
		<g>
			<path fill="#FFFFFF" d="M985.176,657.093c-32.391,0-64.779,0-97.17,0c0.295,0.711,0.59,1.423,0.885,2.134
				c10.123-8.594,12.18-22.922,4.734-33.941c-7.258-10.743-21.734-13.13-32.787-7.272c0.627,0.359,1.254,0.72,1.881,1.079
				c-1.846-27.572-35.619-39.791-54.516-19.357c0.711,0.295,1.422,0.589,2.133,0.884c1.896-20.125-16.398-35.289-35.828-30.474
				c0.512,0.513,1.023,1.024,1.537,1.537c4.602-17.104-2.08-34.53-16.961-44.125c-1.359-0.877-2.611,1.288-1.262,2.158
				c13.943,8.992,20.117,25.298,15.813,41.303c-0.252,0.937,0.615,1.766,1.537,1.537c17.988-4.458,34.402,9.607,32.664,28.063
				c-0.104,1.096,1.432,1.644,2.135,0.884c17.34-18.75,48.541-7.926,50.248,17.59c0.064,0.957,1.01,1.541,1.881,1.079
				c10.242-5.428,22.352-2.87,29.365,6.376c7.387,9.735,4.592,23.328-4.342,30.912c-0.859,0.729-0.143,2.134,0.883,2.134
				c32.391,0,64.779,0,97.17,0C986.787,659.593,986.787,657.093,985.176,657.093L985.176,657.093z"/>
		</g>
	</g>
	<g>
		<g>
			<path fill="#FFFFFF" d="M1014.092,657.093c-5.205,0-10.412,0-15.619,0c-1.611,0-1.611,2.5,0,2.5c5.207,0,10.414,0,15.619,0
				C1015.705,659.593,1015.705,657.093,1014.092,657.093L1014.092,657.093z"/>
		</g>
	</g>
	<g>
		<g>
			<path fill="#FFFFFF" d="M654.645,679.946c34.961,0,69.924,0,104.887,0c64.055,0,128.109,0,192.164,0c32.014,0,64.027,0,96.041,0
				c1.613,0,1.613-2.5,0-2.5c-34.961,0-69.924,0-104.887,0c-64.055,0-128.109,0-192.164,0c-32.014,0-64.027,0-96.041,0
				C653.031,677.446,653.031,679.946,654.645,679.946L654.645,679.946z"/>
		</g>
	</g>
</g>
<g>
	<g>
		<g>
			<path fill="#FFFFFF" d="M929.232,524.14c-2.266-17.984-21.178-27.945-37.277-19.416c0.627,0.359,1.254,0.72,1.881,1.079
				c0.186-9.928-5.711-17.961-14.262-22.539c-9.676-5.179-21.313-4.11-30.746,0.945c-1.422,0.762-0.16,2.92,1.262,2.158
				c8.914-4.777,19.045-5.373,28.223-0.944c7.887,3.806,13.188,11.571,13.023,20.38c-0.02,0.982,1.064,1.511,1.881,1.079
				c14.297-7.574,31.484,1.142,33.516,17.258C926.932,525.717,929.434,525.737,929.232,524.14L929.232,524.14z"/>
		</g>
	</g>
	<g>
		<g>
			<path fill="#FFFFFF" d="M965.555,543.805c-15.477,0-30.955,0-46.432,0c0.295,0.711,0.588,1.423,0.883,2.134
				c2.383-2.021,4.285-4.246,5.939-6.886c0.848-1.354,1.422-2.858,2-4.34c0.215-0.551-1.283-0.516,0.586-0.516
				c3.838,0,7.674,0,11.512,0c1.611,0,1.611-2.5,0-2.5c-4.283,0-8.564,0-12.848,0c-0.572,0-1.035,0.385-1.205,0.918
				c-1.486,4.672-4.021,8.394-7.752,11.556c-0.859,0.729-0.141,2.134,0.885,2.134c15.477,0,30.955,0,46.432,0
				C967.168,546.305,967.168,543.805,965.555,543.805L965.555,543.805z"/>
		</g>
	</g>
	<g>
		<g>
			<path fill="#FFFFFF" d="M1017.625,543.805c-10.9,0-21.803,0-32.703,0c-1.611,0-1.611,2.5,0,2.5c10.9,0,21.803,0,32.703,0
				C1019.236,546.305,1019.236,543.805,1017.625,543.805L1017.625,543.805z"/>
		</g>
	</g>
	<g>
		<g>
			<path fill="#FFFFFF" d="M776.84,566.657c42.867,0,85.734,0,128.604,0c50.75,0,101.5,0,152.25,0c1.088,0,2.176,0,3.264,0
				c1.613,0,1.613-2.5,0-2.5c-42.867,0-85.734,0-128.602,0c-50.752,0-101.502,0-152.252,0c-1.088,0-2.176,0-3.264,0
				C775.227,564.157,775.227,566.657,776.84,566.657L776.84,566.657z"/>
		</g>
	</g>
</g>
<g>
	<g>
		<g>
			<path fill="#FFFFFF" d="M184.411,553.815c27.916,0,55.832,0,83.748,0c1.027,0,1.739-1.403,0.884-2.134
				c-7.425-6.336-9.422-16.239-4.74-24.858c5.082-9.354,17.112-11.719,26.098-7.009c0.875,0.459,1.813-0.119,1.881-1.079
				c1.531-21.874,28.119-31.041,43.014-15.038c0.704,0.756,2.238,0.215,2.135-0.884c-1.49-15.79,12.541-27.832,27.934-24.021
				c0.926,0.229,1.785-0.601,1.538-1.537c-4.147-15.708,3.446-31.708,18.567-37.924c15.027-6.179,31.93,1.208,39.35,15.123
				c0.386,0.725,1.401,0.795,1.963,0.253c19.893-19.206,52.912-5.532,53.482,21.983c0.033,1.609,2.534,1.613,2.5,0
				c-0.27-13.027-7.369-24.456-19.001-30.369c-12.909-6.562-28.567-3.212-38.749,6.618c0.654,0.084,1.309,0.169,1.963,0.253
				c-8.359-15.676-26.873-22.563-43.375-15.777c-15.896,6.534-23.381,24.333-19.111,40.504c0.513-0.513,1.025-1.024,1.538-1.537
				c-16.841-4.169-32.747,8.965-31.099,26.432c0.711-0.295,1.422-0.589,2.133-0.884c-16.476-17.702-45.606-7.118-47.281,16.806
				c0.627-0.359,1.254-0.72,1.881-1.079c-9.385-4.919-21.591-3.199-28.046,5.727c-6.944,9.602-5.333,22.395,3.659,30.066
				c0.295-0.711,0.59-1.423,0.884-2.134c-27.916,0-55.832,0-83.748,0C182.799,551.315,182.799,553.815,184.411,553.815
				L184.411,553.815z"/>
		</g>
	</g>
	<g>
		<g>
			<path fill="#FFFFFF" d="M118.209,553.815c18.246,0,36.494,0,54.74,0c1.613,0,1.613-2.5,0-2.5c-18.246,0-36.494,0-54.74,0
				C116.596,551.315,116.596,553.815,118.209,553.815L118.209,553.815z"/>
		</g>
	</g>
	<g>
		<g>
			<path fill="#FFFFFF" d="M249.859,568.856c-45.934,0-91.867,0-137.801,0c-36.95,0-73.9,0-110.85,0c-1.613,0-1.613,2.5,0,2.5
				c45.934,0,91.867,0,137.801,0c36.949,0,73.899,0,110.85,0C251.471,571.356,251.471,568.856,249.859,568.856L249.859,568.856z"/>
		</g>
	</g>
</g>
<g>
	<g>
		<path fill="#FFFFFF" d="M632.48,697.018c48.195,0,96.391,0,144.586,0c24.027,0,48.055,0,72.08,0c1.613,0,1.613-2.5,0-2.5
			c-48.195,0-96.391,0-144.586,0c-24.027,0-48.053,0-72.08,0C630.867,694.518,630.867,697.018,632.48,697.018L632.48,697.018z"/>
	</g>
</g>
<g>
	<g>
		<path fill="#FFFFFF" d="M871.359,697.018c9.111,0,18.221,0,27.332,0c1.613,0,1.613-2.5,0-2.5c-9.111,0-18.221,0-27.332,0
			C869.746,694.518,869.746,697.018,871.359,697.018L871.359,697.018z"/>
	</g>
</g>
<g>
	<g>
		<path fill="#FFFFFF" d="M700.332,377.351c2.545,0,5.09,0,7.635,0c1.834,0,3.668,0,5.502,0c0.664,0,1.328,0,1.992,0
			c1.73,0,0.35,0.285-0.088-0.909c0.666,1.821,1.332,3.642,2,5.462c4.063,11.105,8.125,22.21,12.188,33.315
			c10.219,27.933,20.439,55.865,30.658,83.798c1.15,3.147,2.303,6.296,3.455,9.444c0.346,0.946,0.129,1.403,0.443,0.565
			c-0.211,0.561-0.43,1.118-0.648,1.675c-3.936,9.995-8.482,19.76-13.244,29.385c-19.754,39.932-44.873,77.937-76.736,109.25
			c-5.1,5.012-10.426,9.789-15.908,14.38c-1.236,1.036,0.541,2.795,1.768,1.768c35.656-29.857,63.281-68.503,85.303-109.196
			c6.77-12.509,13.004-25.329,18.561-38.424c1.613-3.807,3.984-7.028,2.537-10.988c-15.99-43.703-31.979-87.405-47.967-131.107
			c-0.193-0.528-0.615-0.917-1.205-0.917c-5.416,0-10.83,0-16.244,0C698.719,374.851,698.719,377.351,700.332,377.351
			L700.332,377.351z"/>
	</g>
</g>
<g>
	<g>
		<g>
			<path fill="#FFFFFF" d="M403.25,8.959c0,5.667,0,11.333,0,17c0,0.681,0.568,1.25,1.25,1.25c6.666,0,13.334,0,20,0
				c0.682,0,1.25-0.569,1.25-1.25c0-5.667,0-11.333,0-17c0-0.681-0.568-1.25-1.25-1.25c-6.666,0-13.334,0-20,0
				c-1.612,0-1.612,2.5,0,2.5c6.666,0,13.334,0,20,0c-0.416-0.417-0.834-0.833-1.25-1.25c0,5.667,0,11.333,0,17
				c0.416-0.417,0.834-0.833,1.25-1.25c-6.666,0-13.334,0-20,0c0.416,0.417,0.834,0.833,1.25,1.25c0-5.667,0-11.333,0-17
				C405.75,7.347,403.25,7.347,403.25,8.959z"/>
		</g>
	</g>
	<g>
		<g>
			<path fill="#FFFFFF" d="M423.616,25.075c-2.167,2.055-4.333,4.111-6.5,6.167c-0.8,0.759-0.185,2.134,0.884,2.134
				c9.125,0,18.25,0,27.375,0c1.031,0,1.445-1.042,1.08-1.881c-1.217-2.781-2.434-5.562-3.648-8.343
				c0.391,0.895-0.166,1.395,0.383,0.13c0.471-1.086,0.942-2.172,1.414-3.259c0.617-1.422,1.234-2.845,1.852-4.267
				c0.363-0.839-0.047-1.881-1.08-1.881c-6.959,0-13.916,0-20.875,0c-0.682,0-1.25,0.568-1.25,1.25c0,3.611,0,7.222,0,10.833
				c0,1.612,2.5,1.612,2.5,0c0-3.611,0-7.222,0-10.833c-0.416,0.417-0.834,0.833-1.25,1.25c6.959,0,13.916,0,20.875,0
				c-0.359-0.627-0.72-1.254-1.08-1.881c-1.092,2.52-3.872,6.412-3.872,9.165c0,2.731,2.781,6.601,3.872,9.097
				c0.36-0.627,0.721-1.254,1.08-1.881c-9.125,0-18.25,0-27.375,0c0.295,0.711,0.59,1.422,0.884,2.134
				c2.167-2.055,4.333-4.111,6.5-6.167C426.556,25.731,424.785,23.966,423.616,25.075z"/>
		</g>
	</g>
	<g>
		<g>
			<path fill="#FFFFFF" d="M419.25,32.125c0-2.056,0-4.111,0-6.167c-0.416,0.417-0.834,0.833-1.25,1.25c2.166,0,4.334,0,6.5,0
				c-0.295-0.711-0.59-1.422-0.884-2.134c-2.167,2.055-4.333,4.111-6.5,6.167c-1.172,1.111,0.599,2.876,1.768,1.768
				c2.167-2.055,4.333-4.111,6.5-6.167c0.8-0.759,0.185-2.134-0.884-2.134c-2.166,0-4.334,0-6.5,0c-0.682,0-1.25,0.569-1.25,1.25
				c0,2.056,0,4.111,0,6.167C416.75,33.738,419.25,33.738,419.25,32.125z"/>
		</g>
	</g>
</g>
<g>
	<g>
		<path fill="#FFFFFF" d="M631.859,389.184c-11.1,0-22.197,0-33.297,0c-1.154,0-2.232,1.909-2.873,2.649
			c-2.355,2.724-4.76,5.406-7.182,8.07c-22.73,24.991-47.49,48.208-73.585,69.645c-40.751,33.479-85.847,62.861-135.255,81.812
			c-1.488,0.571-0.842,2.988,0.666,2.41c46.064-17.668,88.154-44.309,126.787-74.752c28.27-22.277,54.842-46.849,79.348-73.209
			c4.393-4.725,8.752-9.499,12.9-14.442c-0.254,0.301-1.303,0.317-0.262,0.317c1.135,0,2.268,0,3.4,0c3.738,0,7.477,0,11.215,0
			c6.045,0,12.092,0,18.137,0C633.471,391.684,633.471,389.184,631.859,389.184L631.859,389.184z"/>
	</g>
</g>
<g>
	<g>
		<path fill="#FFFFFF" d="M461.526,712.641c15.304,3.48,31.772,3.697,47.325,2.494c32.285-2.498,63.473-14.363,87.229-36.736
			c32.033-30.168,42.969-73.854,50.709-115.633c0.293-1.575-2.117-2.248-2.41-0.664c-4.152,22.409-9.922,44.614-17.514,66.114
			c-6.154,17.431-17.867,33.851-30.889,46.803c-24.023,23.9-56.982,35.719-90.353,37.844c-14.282,0.91-29.401,0.559-43.433-2.632
			C460.621,709.874,459.955,712.284,461.526,712.641L461.526,712.641z"/>
	</g>
</g>
<g>
	<g>
		<path fill="#FFFFFF" d="M698.984,391.6c2.977,0,5.953,0,8.93,0c0.641,0,1.283,0,1.924,0c1.021,0-0.602-0.44-0.76-0.877
			c0.092,0.252,0.182,0.504,0.273,0.756c1.145,3.172,2.287,6.344,3.432,9.516c4.775,13.234,9.551,26.47,14.324,39.705
			c7.932,21.982,15.861,43.965,23.793,65.947c0,0.003,0.002,0.007,0.004,0.01c0.543,1.505,2.959,0.855,2.41-0.664
			c-13.947-38.658-27.893-77.316-41.84-115.975c-0.191-0.529-0.617-0.918-1.205-0.918c-3.762,0-7.523,0-11.285,0
			C697.371,389.1,697.371,391.6,698.984,391.6L698.984,391.6z"/>
	</g>
</g>
<g>
	<g>
		<path fill="#FFFFFF" d="M693.654,311.768c-8.76,44.499-17.518,88.997-26.277,133.495c-7.666,38.946-15.332,77.893-22.998,116.839
			c-0.311,1.574,2.1,2.245,2.41,0.664c8.76-44.498,17.518-88.996,26.277-133.494c7.666-38.946,15.332-77.893,22.998-116.839
			C696.375,310.858,693.965,310.188,693.654,311.768L693.654,311.768z"/>
	</g>
</g>
<g>
	<g>
		<path fill="#FFFFFF" d="M388.326,573.275c37.705-25.853,75.41-51.705,113.117-77.558c0.126-0.087,0.253-0.174,0.38-0.261
			c1.32-0.905,0.071-3.073-1.262-2.158c-37.706,25.853-75.411,51.705-113.117,77.558c-0.126,0.087-0.253,0.174-0.38,0.261
			C385.744,572.022,386.992,574.19,388.326,573.275L388.326,573.275z"/>
	</g>
</g>
<g>
	<g>
		<path fill="#FFFFFF" d="M406.147,584.155c36.883-25.566,73.767-51.134,110.649-76.701c0.023-0.017,0.047-0.033,0.071-0.05
			c1.315-0.911,0.067-3.079-1.262-2.158c-36.883,25.566-73.767,51.134-110.649,76.701c-0.023,0.017-0.047,0.033-0.071,0.05
			C403.57,582.908,404.818,585.076,406.147,584.155L406.147,584.155z"/>
	</g>
</g>
<g>
	<g>
		<path fill="#FFFFFF" d="M417.443,598.173c38.193-26.486,76.388-52.972,114.582-79.458c0.303-0.21,0.605-0.421,0.908-0.631
			c1.314-0.911,0.066-3.08-1.262-2.158c-38.193,26.486-76.388,52.972-114.582,79.458c-0.303,0.21-0.605,0.421-0.908,0.631
			C414.866,596.926,416.114,599.095,417.443,598.173L417.443,598.173z"/>
	</g>
</g>
<g>
	<g>
		<path fill="#FFFFFF" d="M427.146,612.096c39.342-26.924,78.684-53.849,118.025-80.773c1.023-0.7,2.047-1.401,3.072-2.103
			c1.32-0.904,0.072-3.071-1.262-2.158c-39.342,26.924-78.684,53.849-118.025,80.773c-1.024,0.7-2.049,1.401-3.072,2.103
			C424.563,610.842,425.812,613.009,427.146,612.096L427.146,612.096z"/>
	</g>
</g>
<g>
	<g>
		<path fill="#FFFFFF" d="M445.238,622.085c36.814-25.285,73.629-50.57,110.443-75.855c0.002-0.002,0.004-0.004,0.008-0.006
			c1.318-0.906,0.07-3.074-1.262-2.158c-36.814,25.285-73.629,50.57-110.443,75.855c-0.002,0.002-0.006,0.004-0.008,0.006
			C442.656,620.833,443.905,623.001,445.238,622.085L445.238,622.085z"/>
	</g>
</g>
<g>
	<g>
		<path fill="#FFFFFF" d="M445.238,622.085c38.936-26.733,77.873-53.466,116.809-80.199c0.619-0.425,1.238-0.851,1.857-1.275
			c1.32-0.906,0.07-3.073-1.262-2.158c-38.937,26.733-77.873,53.466-116.809,80.199c-0.619,0.425-1.238,0.851-1.857,1.275
			C442.656,620.833,443.905,623,445.238,622.085L445.238,622.085z"/>
	</g>
</g>
<g>
	<g>
		<path fill="#FFFFFF" d="M456.004,636.534c39.506-27.406,79.012-54.813,118.516-82.221c1.404-0.973,2.807-1.946,4.209-2.92
			c1.314-0.912,0.066-3.08-1.262-2.158c-39.506,27.406-79.01,54.813-118.516,82.221c-1.403,0.973-2.807,1.946-4.209,2.92
			C453.428,635.288,454.676,637.456,456.004,636.534L456.004,636.534z"/>
	</g>
</g>
<g>
	<g>
		<path fill="#FFFFFF" d="M478.121,643.146c38.264-26.335,76.527-52.671,114.793-79.006c0.303-0.209,0.605-0.418,0.91-0.627
			c1.318-0.907,0.07-3.075-1.262-2.158c-38.266,26.335-76.529,52.671-114.793,79.006c-0.304,0.209-0.607,0.418-0.91,0.627
			C475.54,641.895,476.789,644.063,478.121,643.146L478.121,643.146z"/>
	</g>
</g>
<g>
	<g>
		<path fill="#FFFFFF" d="M489.493,657.169c35.759-24.552,71.517-49.104,107.276-73.656c1.32-0.906,0.07-3.073-1.262-2.158
			c-35.76,24.552-71.518,49.104-107.276,73.656C486.912,655.917,488.16,658.084,489.493,657.169L489.493,657.169z"/>
	</g>
</g>
<g>
	<g>
		<path fill="#FFFFFF" d="M491.311,678.548c20.589-14.194,41.178-28.389,61.768-42.583c1.318-0.908,0.07-3.076-1.262-2.158
			c-20.589,14.194-41.179,28.389-61.768,42.583C488.73,677.298,489.979,679.466,491.311,678.548L491.311,678.548z"/>
	</g>
</g>
<g>
	<g>
		<path fill="#FFFFFF" d="M470.943,713.95c40.095-27.437,80.189-54.873,120.283-82.31c1.848-1.265,3.695-2.528,5.543-3.793
			c1.32-0.904,0.072-3.071-1.262-2.158c-40.094,27.437-80.189,54.873-120.283,82.31c-1.848,1.265-3.695,2.528-5.543,3.793
			C468.361,712.696,469.609,714.863,470.943,713.95L470.943,713.95z"/>
	</g>
</g>
<g>
	<g>
		<path fill="#FFFFFF" d="M501.823,715.535c31.649-22.118,63.298-44.236,94.946-66.355c1.311-0.916,0.063-3.085-1.262-2.158
			c-31.648,22.118-63.297,44.236-94.946,66.355C499.25,714.292,500.498,716.461,501.823,715.535L501.823,715.535z"/>
	</g>
</g>
<g>
	<g>
		<path fill="#FFFFFF" d="M599.65,427.65c2.797-1.918,5.596-3.837,8.395-5.756c1.32-0.905,0.072-3.073-1.262-2.158
			c-2.799,1.918-5.598,3.837-8.395,5.756C597.068,426.397,598.316,428.565,599.65,427.65L599.65,427.65z"/>
	</g>
</g>
<g>
	<g>
		<path fill="#FFFFFF" d="M562.143,453.367c5.109-3.503,10.217-7.006,15.326-10.509c1.32-0.905,0.072-3.073-1.262-2.158
			c-5.109,3.503-10.217,7.006-15.326,10.509C559.561,452.114,560.809,454.282,562.143,453.367L562.143,453.367z"/>
	</g>
</g>
<g>
	<g>
		<path fill="#FFFFFF" d="M622.459,434.012c1.611,0,1.611-2.5,0-2.5C620.846,431.512,620.846,434.012,622.459,434.012
			L622.459,434.012z"/>
	</g>
</g>
<g>
	<g>
		<path fill="#FFFFFF" d="M512.369,510.591c29.697-20.585,59.395-41.171,89.092-61.758c1.314-0.911,0.066-3.079-1.262-2.158
			c-29.697,20.587-59.395,41.173-89.092,61.758C509.793,509.344,511.041,511.512,512.369,510.591L512.369,510.591z"/>
	</g>
</g>
<g>
	<g>
		<path fill="#FFFFFF" d="M599.65,470.418c3.549-2.461,7.098-4.922,10.646-7.383c1.314-0.911,0.066-3.08-1.262-2.158
			c-3.549,2.461-7.098,4.922-10.646,7.383C597.074,469.171,598.322,471.34,599.65,470.418L599.65,470.418z"/>
	</g>
</g>
<g>
	<g>
		<path fill="#FFFFFF" d="M566.035,494.855c7.277-5.047,14.557-10.095,21.836-15.143c1.314-0.911,0.066-3.08-1.262-2.158
			c-7.279,5.047-14.559,10.095-21.836,15.143C563.459,493.608,564.707,495.777,566.035,494.855L566.035,494.855z"/>
	</g>
</g>
<g>
	<g>
		<path fill="#FFFFFF" d="M523.664,524.611c9.109-6.316,18.219-12.634,27.328-18.951c1.314-0.911,0.066-3.08-1.262-2.158
			c-9.109,6.317-18.219,12.634-27.328,18.951C521.088,523.364,522.336,525.533,523.664,524.611L523.664,524.611z"/>
	</g>
</g>
<g>
	<g>
		<path fill="#FFFFFF" d="M556.916,522.152c16.064-10.994,32.129-21.989,48.195-32.984c1.32-0.904,0.072-3.071-1.262-2.158
			c-16.066,10.994-32.131,21.989-48.195,32.984C554.332,520.898,555.582,523.065,556.916,522.152L556.916,522.152z"/>
	</g>
</g>
<g>
	<g>
		<path fill="#FFFFFF" d="M589.451,522.999c6.146-4.22,12.293-8.44,18.441-12.661c1.32-0.906,0.07-3.073-1.262-2.158
			c-6.148,4.22-12.295,8.44-18.441,12.661C586.869,521.747,588.117,523.914,589.451,522.999L589.451,522.999z"/>
	</g>
</g>
<g>
	<g>
		<path fill="#FFFFFF" d="M573.73,554.988c13.863-9.617,27.729-19.234,41.592-28.853c1.314-0.912,0.066-3.08-1.262-2.158
			c-13.863,9.617-27.729,19.234-41.592,28.853C571.154,553.742,572.402,555.91,573.73,554.988L573.73,554.988z"/>
	</g>
</g>
<g>
	<g>
		<path fill="#FFFFFF" d="M600.83,558.299c1.611,0,1.611-2.5,0-2.5C599.217,555.799,599.217,558.299,600.83,558.299L600.83,558.299z
			"/>
	</g>
</g>
<g>
	<g>
		<path fill="#FFFFFF" d="M609.809,574.113c3.354-2.303,6.709-4.605,10.063-6.909c1.318-0.906,0.07-3.074-1.262-2.158
			c-3.354,2.303-6.709,4.605-10.063,6.909C607.229,572.861,608.477,575.028,609.809,574.113L609.809,574.113z"/>
	</g>
</g>
<g>
	<g>
		<path fill="#FFFFFF" d="M603.594,601.717c7.498-5.169,14.996-10.338,22.494-15.508c1.316-0.908,0.068-3.076-1.262-2.158
			c-7.498,5.169-14.996,10.338-22.494,15.508C601.014,600.467,602.262,602.635,603.594,601.717L603.594,601.717z"/>
	</g>
</g>
<g>
	<g>
		<path fill="#FFFFFF" d="M606.615,619.973c1.611,0,1.611-2.5,0-2.5C605.002,617.473,605.002,619.973,606.615,619.973
			L606.615,619.973z"/>
	</g>
</g>
<g>
	<g>
		<path fill="#FFFFFF" d="M608.045,641.972c2.264-1.582,4.529-3.165,6.795-4.748c1.311-0.916,0.063-3.084-1.262-2.158
			c-2.266,1.582-4.531,3.165-6.795,4.748C605.473,640.73,606.719,642.898,608.045,641.972L608.045,641.972z"/>
	</g>
</g>
<g>
	<g>
		<path fill="#FFFFFF" d="M323.681,188.117c6.838-4.688,13.676-9.377,20.514-14.065c1.32-0.906,0.071-3.073-1.262-2.159
			c-6.838,4.688-13.676,9.377-20.514,14.065C321.099,186.863,322.348,189.031,323.681,188.117L323.681,188.117z"/>
	</g>
</g>
<g>
	<g>
		<path fill="#FFFFFF" d="M328.549,207.688c10.431-7.451,20.86-14.903,31.291-22.354c1.299-0.929,0.053-3.098-1.262-2.159
			c-10.431,7.452-20.86,14.903-31.291,22.355C325.988,206.458,327.234,208.627,328.549,207.688L328.549,207.688z"/>
	</g>
</g>
<g>
	<g>
		<path fill="#FFFFFF" d="M332.191,225.868c14.322-9.798,28.643-19.597,42.964-29.395c1.321-0.904,0.073-3.072-1.262-2.159
			c-14.321,9.799-28.642,19.597-42.964,29.396C329.608,224.613,330.857,226.781,332.191,225.868L332.191,225.868z"/>
	</g>
</g>
<g>
	<g>
		<path fill="#FFFFFF" d="M335.832,245.222c13.107-8.987,26.215-17.975,39.323-26.962c1.32-0.905,0.071-3.073-1.262-2.158
			c-13.108,8.987-26.216,17.975-39.323,26.962C333.25,243.969,334.498,246.137,335.832,245.222L335.832,245.222z"/>
	</g>
</g>
<g>
	<g>
		<path fill="#FFFFFF" d="M337.488,266.481c13.586-9.316,27.173-18.631,40.76-27.947c1.32-0.905,0.071-3.073-1.262-2.158
			c-13.587,9.315-27.174,18.631-40.76,27.946C334.906,265.228,336.154,267.395,337.488,266.481L337.488,266.481z"/>
	</g>
</g>
<g>
	<g>
		<path fill="#FFFFFF" d="M392.25,252.046c3.449-2.274,6.898-4.549,10.348-6.824c1.34-0.883,0.089-3.049-1.262-2.158
			c-3.449,2.274-6.898,4.549-10.348,6.824C389.649,250.771,390.9,252.937,392.25,252.046L392.25,252.046z"/>
	</g>
</g>
<g>
	<g>
		<path fill="#FFFFFF" d="M338.732,287.343c12.357-8.15,24.717-16.301,37.075-24.452c1.339-0.883,0.089-3.049-1.262-2.158
			c-12.358,8.15-24.718,16.301-37.075,24.452C336.131,286.068,337.382,288.234,338.732,287.343L338.732,287.343z"/>
	</g>
</g>
<g>
	<g>
		<path fill="#FFFFFF" d="M427.667,247.412c2.99-2.073,5.981-4.146,8.972-6.22c1.314-0.912,0.066-3.08-1.262-2.159
			c-2.99,2.073-5.981,4.146-8.972,6.22C425.09,246.165,426.338,248.333,427.667,247.412L427.667,247.412z"/>
	</g>
</g>
<g>
	<g>
		<path fill="#FFFFFF" d="M338.977,308.904c22.426-15.549,44.852-31.097,67.277-46.646c1.314-0.912,0.066-3.08-1.262-2.159
			c-22.426,15.549-44.852,31.097-67.277,46.646C336.399,307.657,337.647,309.825,338.977,308.904L338.977,308.904z"/>
	</g>
</g>
<g>
	<g>
		<path fill="#FFFFFF" d="M338.085,331.509c36.407-24.973,72.813-49.946,109.221-74.919c1.802-1.236,3.604-2.472,5.405-3.708
			c1.32-0.906,0.072-3.074-1.262-2.159c-37.777,25.914-75.555,51.827-113.332,77.74c-0.432,0.296-0.863,0.592-1.294,0.887
			C335.503,330.256,336.752,332.424,338.085,331.509L338.085,331.509z"/>
	</g>
</g>
<g>
	<g>
		<path fill="#FFFFFF" d="M335.832,355.5c32.443-21.99,64.889-43.979,97.332-65.97c1.326-0.898,0.078-3.066-1.262-2.158
			c-32.443,21.99-64.889,43.979-97.332,65.97C333.244,354.24,334.492,356.407,335.832,355.5L335.832,355.5z"/>
	</g>
</g>
<g>
	<g>
		<path fill="#FFFFFF" d="M456.547,294.833c9.269-6.313,18.537-12.625,27.805-18.938c1.324-0.901,0.074-3.069-1.262-2.158
			c-9.268,6.313-18.536,12.625-27.805,18.938C453.962,293.577,455.211,295.744,456.547,294.833L456.547,294.833z"/>
	</g>
</g>
<g>
	<g>
		<path fill="#FFFFFF" d="M332.191,379.535c38.421-26.169,76.842-52.338,115.262-78.507c0.358-0.245,0.717-0.489,1.076-0.733
			c1.323-0.901,0.074-3.069-1.262-2.158c-38.421,26.169-76.842,52.338-115.262,78.507c-0.358,0.244-0.717,0.488-1.076,0.732
			C329.606,378.277,330.855,380.445,332.191,379.535L332.191,379.535z"/>
	</g>
</g>
<g>
	<g>
		<path fill="#FFFFFF" d="M326.766,405.032c41.066-28.147,82.133-56.295,123.199-84.442c8.979-6.155,17.959-12.309,26.938-18.464
			c1.32-0.905,0.072-3.073-1.262-2.158c-41.066,28.147-82.133,56.295-123.199,84.442c-8.979,6.154-17.958,12.31-26.938,18.464
			C324.184,403.779,325.433,405.946,326.766,405.032L326.766,405.032z"/>
	</g>
</g>
<g>
	<g>
		<path fill="#FFFFFF" d="M319.084,432.371c39.38-27.129,78.759-54.258,118.139-81.388c1.113-0.768,2.228-1.535,3.342-2.303
			c1.318-0.908,0.07-3.076-1.262-2.159c-39.379,27.13-78.758,54.259-118.137,81.389c-1.115,0.768-2.229,1.535-3.344,2.303
			C316.504,431.121,317.753,433.289,319.084,432.371L319.084,432.371z"/>
	</g>
</g>
<g>
	<g>
		<path fill="#FFFFFF" d="M308.291,462.433c39.797-27.531,79.594-55.062,119.391-82.593c18.891-13.068,37.779-26.136,56.67-39.204
			c1.316-0.91,0.068-3.078-1.262-2.158c-39.797,27.531-79.594,55.062-119.391,82.593c-18.891,13.068-37.78,26.136-56.67,39.204
			C305.713,461.185,306.961,463.353,308.291,462.433L308.291,462.433z"/>
	</g>
</g>
<g>
	<g>
		<path fill="#FFFFFF" d="M307.49,484.38c40.119-27.474,80.237-54.948,120.355-82.422c18.1-12.396,36.199-24.79,54.299-37.185
			c1.322-0.905,0.072-3.073-1.262-2.159c-40.119,27.475-80.237,54.948-120.355,82.423c-18.1,12.395-36.199,24.789-54.299,37.185
			C304.906,483.126,306.156,485.294,307.49,484.38L307.49,484.38z"/>
	</g>
</g>
<g>
	<g>
		<path fill="#FFFFFF" d="M406.377,438.245c33.395-22.845,66.789-45.69,100.184-68.536c1.322-0.904,0.073-3.071-1.262-2.158
			c-33.395,22.845-66.789,45.69-100.184,68.536C403.794,436.991,405.043,439.158,406.377,438.245L406.377,438.245z"/>
	</g>
</g>
<g>
	<g>
		<path fill="#FFFFFF" d="M422.516,448.788c23.266-16.215,46.532-32.431,69.799-48.646c1.313-0.914,0.064-3.083-1.262-2.158
			c-23.267,16.215-46.533,32.431-69.799,48.646C419.941,447.543,421.189,449.712,422.516,448.788L422.516,448.788z"/>
	</g>
</g>
<g>
	<g>
		<path fill="#FFFFFF" d="M458.839,446.585c14.328-10.006,28.656-20.012,42.984-30.019c1.312-0.915,0.063-3.084-1.262-2.158
			c-14.328,10.006-28.656,20.012-42.984,30.019C456.266,445.342,457.514,447.511,458.839,446.585L458.839,446.585z"/>
	</g>
</g>
<g>
	<g>
		<path fill="#FFFFFF" d="M475.479,458.054c23.671-15.958,47.341-31.916,71.012-47.875c1.328-0.896,0.078-3.063-1.262-2.158
			c-23.671,15.958-47.341,31.916-71.012,47.875C472.889,456.792,474.139,458.958,475.479,458.054L475.479,458.054z"/>
	</g>
</g>
<g>
	<g>
		<line fill="#FFFFFF" x1="339.433" y1="54.722" x2="533.436" y2="119.546"/>
		<g>
			<path fill="#FFFFFF" d="M338.768,57.132c46.577,15.563,93.154,31.126,139.73,46.689c18.091,6.045,36.182,12.09,54.271,18.135
				c3.068,1.025,4.373-3.805,1.33-4.821c-46.576-15.563-93.153-31.126-139.73-46.689c-18.09-6.045-36.182-12.09-54.271-18.135
				C337.03,51.286,335.727,56.116,338.768,57.132L338.768,57.132z"/>
		</g>
	</g>
	<g>
		<g>
			<path fill="#FFFFFF" d="M347.354,68.019c4.721,7.011,7.992,15.188,10.766,23.113c6.992,19.985,9.232,41.362,7.631,62.417
				c-0.122,1.609,2.379,1.597,2.5,0c1.625-21.352-0.799-42.794-7.721-63.082c-2.771-8.124-6.193-16.547-11.018-23.71
				C348.617,65.428,346.449,66.678,347.354,68.019L347.354,68.019z"/>
		</g>
	</g>
	<g>
		<g>
			<path fill="#FFFFFF" d="M527.424,127.503c5.748,5.473,9.971,12.902,13.584,19.859c10.568,20.346,15.043,43.493,16.219,66.215
				c0.084,1.604,2.584,1.612,2.5,0c-1.191-22.99-5.793-45.939-16.135-66.64c-3.713-7.432-8.307-15.4-14.4-21.202
				C528.025,124.625,526.254,126.39,527.424,127.503L527.424,127.503z"/>
		</g>
	</g>
	<g>
		<g>
			<path fill="#FFFFFF" d="M360.506,93.51c4.34-3.088,8.68-6.175,13.021-9.263c1.302-0.926,0.056-3.096-1.262-2.159
				c-4.341,3.088-8.681,6.175-13.021,9.263C357.941,92.277,359.188,94.447,360.506,93.51L360.506,93.51z"/>
		</g>
	</g>
	<g>
		<g>
			<path fill="#FFFFFF" d="M365.335,111.976c7.946-5.449,15.894-10.897,23.841-16.347c1.32-0.905,0.072-3.073-1.262-2.158
				c-7.947,5.448-15.895,10.897-23.841,16.346C362.753,110.723,364.002,112.89,365.335,111.976L365.335,111.976z"/>
		</g>
	</g>
	<g>
		<g>
			<path fill="#FFFFFF" d="M368.167,131.865c7.077-4.853,14.153-9.705,21.231-14.557c1.32-0.906,0.071-3.073-1.262-2.159
				c-7.078,4.853-14.154,9.705-21.231,14.557C365.585,130.611,366.834,132.779,368.167,131.865L368.167,131.865z"/>
		</g>
	</g>
	<g>
		<g>
			<path fill="#FFFFFF" d="M367.626,154.628c9.952-6.823,19.903-13.646,29.854-20.47c1.32-0.905,0.072-3.073-1.262-2.158
				c-9.951,6.823-19.902,13.646-29.854,20.47C365.044,153.375,366.293,155.543,367.626,154.628L367.626,154.628z"/>
		</g>
	</g>
	<g>
		<g>
			<path fill="#FFFFFF" d="M389.102,161.858c9.715-6.686,19.428-13.372,29.143-20.058c1.318-0.908,0.07-3.076-1.262-2.159
				c-9.715,6.687-19.428,13.372-29.143,20.059C386.521,160.607,387.77,162.775,389.102,161.858L389.102,161.858z"/>
		</g>
	</g>
	<g>
		<g>
			<path fill="#FFFFFF" d="M411.176,168.714c3.623-2.493,7.245-4.985,10.868-7.479c1.319-0.907,0.07-3.075-1.262-2.158
				c-3.623,2.492-7.245,4.985-10.868,7.478C408.595,167.463,409.844,169.63,411.176,168.714L411.176,168.714z"/>
		</g>
	</g>
	<g>
		<g>
			<path fill="#FFFFFF" d="M433.164,175.543c7.998-5.582,15.995-11.163,23.992-16.745c1.313-0.915,0.064-3.083-1.262-2.158
				c-7.997,5.582-15.994,11.163-23.992,16.745C430.592,174.3,431.839,176.469,433.164,175.543L433.164,175.543z"/>
		</g>
	</g>
	<g>
		<g>
			<path fill="#FFFFFF" d="M455.645,182.525c2.342-1.589,4.683-3.178,7.023-4.767c1.326-0.9,0.076-3.067-1.262-2.159
				c-2.341,1.589-4.682,3.178-7.023,4.768C453.057,181.266,454.307,183.433,455.645,182.525L455.645,182.525z"/>
		</g>
	</g>
	<g>
		<g>
			<path fill="#FFFFFF" d="M476.902,189.126c2.054-1.408,4.107-2.816,6.161-4.224c1.32-0.906,0.071-3.073-1.262-2.159
				c-2.054,1.408-4.107,2.816-6.161,4.225C474.32,187.874,475.568,190.041,476.902,189.126L476.902,189.126z"/>
		</g>
	</g>
	<g>
		<g>
			<path fill="#FFFFFF" d="M468.715,173.268c1.171-0.795,2.342-1.589,3.512-2.384c1.326-0.9,0.076-3.067-1.262-2.159
				c-1.17,0.795-2.341,1.589-3.512,2.384C466.127,172.009,467.377,174.176,468.715,173.268L468.715,173.268z"/>
		</g>
	</g>
	<g>
		<g>
			<path fill="#FFFFFF" d="M476.902,167.359c1.171-0.795,2.342-1.589,3.512-2.384c1.326-0.9,0.076-3.067-1.262-2.159
				c-1.17,0.795-2.341,1.589-3.512,2.384C474.314,166.1,475.564,168.267,476.902,167.359L476.902,167.359z"/>
		</g>
	</g>
</g>
<g>
	<g>
		<path fill="#FFFFFF" d="M380.092,62.244c6.368-6.777,12.736-13.555,19.104-20.333c-0.59,0-1.178,0-1.768,0
			c17.521,15.069,35.043,30.139,52.564,45.208c1.216,1.045,2.992-0.715,1.768-1.768c-17.521-15.069-35.043-30.139-52.564-45.208
			c-0.504-0.433-1.275-0.524-1.768,0c-6.367,6.777-12.735,13.555-19.104,20.333C377.223,61.649,378.986,63.421,380.092,62.244
			L380.092,62.244z"/>
	</g>
</g>
<g>
	<g>
		<path fill="#FFFFFF" d="M569.295,625.148c7.498-5.169,14.996-10.338,22.494-15.508c1.318-0.908,0.07-3.076-1.262-2.158
			c-7.498,5.169-14.996,10.338-22.494,15.508C566.715,623.898,567.963,626.066,569.295,625.148L569.295,625.148z"/>
	</g>
</g>
<g>
	<g>
		<path fill="#FFFFFF" d="M548.623,385.291c2.797-1.918,5.596-3.837,8.395-5.756c1.32-0.906,0.072-3.073-1.262-2.159
			c-2.799,1.919-5.598,3.838-8.395,5.757C546.041,384.038,547.289,386.205,548.623,385.291L548.623,385.291z"/>
	</g>
</g>
<g>
	<g>
		<path fill="#FFFFFF" d="M511.115,411.007c5.108-3.503,10.217-7.006,15.326-10.509c1.32-0.905,0.072-3.073-1.262-2.158
			c-5.109,3.503-10.218,7.006-15.326,10.509C508.533,409.754,509.781,411.922,511.115,411.007L511.115,411.007z"/>
	</g>
</g>
<g>
	<g>
		<path fill="#FFFFFF" d="M482.433,318.451c1.612,0,1.612-2.5,0-2.5S480.82,318.451,482.433,318.451L482.433,318.451z"/>
	</g>
</g>
<g>
	<g>
		<path fill="#FFFFFF" d="M506.402,346.973c3.549-2.461,7.099-4.922,10.647-7.383c1.315-0.912,0.067-3.08-1.262-2.159
			c-3.549,2.461-7.099,4.922-10.647,7.383C503.826,345.726,505.074,347.894,506.402,346.973L506.402,346.973z"/>
	</g>
</g>
<g>
	<g>
		<path fill="#FFFFFF" d="M464.111,331.224c3.549-2.461,7.099-4.922,10.647-7.383c1.315-0.912,0.067-3.08-1.262-2.158
			c-3.549,2.461-7.099,4.922-10.647,7.383C461.535,329.978,462.783,332.146,464.111,331.224L464.111,331.224z"/>
	</g>
</g>
<g>
	<g>
		<path fill="#FFFFFF" d="M528.308,332.226c1.612,0,1.612-2.5,0-2.5S526.695,332.226,528.308,332.226L528.308,332.226z"/>
	</g>
</g>
<g>
	<g>
		<path fill="#FFFFFF" d="M501.192,393.61c1.612,0,1.612-2.5,0-2.5S499.58,393.61,501.192,393.61L501.192,393.61z"/>
	</g>
</g>
<g>
	<g>
		<path fill="#FFFFFF" d="M511.738,385.461c1.612,0,1.612-2.5,0-2.5S510.126,385.461,511.738,385.461L511.738,385.461z"/>
	</g>
</g>
<g>
	<g>
		<path fill="#FFFFFF" d="M404.119,129.969c6.146-4.22,12.294-8.441,18.441-12.661c1.319-0.906,0.07-3.074-1.262-2.159
			c-6.147,4.221-12.295,8.441-18.441,12.662C401.537,128.717,402.785,130.885,404.119,129.969L404.119,129.969z"/>
	</g>
</g>
<g>
	<g>
		<path fill="#FFFFFF" d="M394.452,113.674c1.974-1.355,3.946-2.709,5.919-4.064c1.32-0.906,0.071-3.074-1.262-2.158
			c-1.973,1.354-3.945,2.709-5.919,4.063C391.871,112.421,393.119,114.589,394.452,113.674L394.452,113.674z"/>
	</g>
</g>
<g>
	<g>
		<path fill="#FFFFFF" d="M422.561,138.195c1.265-0.869,2.53-1.737,3.795-2.606c1.32-0.906,0.072-3.074-1.262-2.158
			c-1.265,0.869-2.53,1.737-3.795,2.606C419.979,136.942,421.227,139.11,422.561,138.195L422.561,138.195z"/>
	</g>
</g>
<g>
	<g>
		<path fill="#FFFFFF" d="M428.09,157.055c4.832-3.014,9.666-6.028,14.498-9.043c1.365-0.851,0.111-3.014-1.262-2.158
			c-4.832,3.014-9.666,6.028-14.498,9.043C425.463,155.748,426.717,157.911,428.09,157.055L428.09,157.055z"/>
	</g>
</g>
<g>
	<g>
		<path fill="#FFFFFF" d="M442.027,282.944c1.132-0.792,2.265-1.583,3.396-2.374c0.558-0.39,0.814-1.087,0.449-1.71
			c-0.324-0.552-1.15-0.839-1.711-0.449c-1.132,0.792-2.265,1.583-3.396,2.374c-0.558,0.39-0.814,1.087-0.449,1.71
			C440.641,283.047,441.467,283.334,442.027,282.944L442.027,282.944z"/>
	</g>
</g>
<g>
	<g>
		<path fill="#FFFFFF" d="M490.777,270.819c1.132-0.792,2.265-1.583,3.396-2.374c0.558-0.39,0.814-1.087,0.449-1.71
			c-0.324-0.552-1.15-0.839-1.711-0.449c-1.132,0.792-2.265,1.583-3.396,2.374c-0.558,0.39-0.814,1.087-0.449,1.71
			C489.391,270.922,490.217,271.209,490.777,270.819L490.777,270.819z"/>
	</g>
</g>
<g>
	<g>
		<path fill="#FFFFFF" d="M848.209,525.391c34.166,0,68.332,0,102.5,0c1.611,0,1.611-2.5,0-2.5c-34.168,0-68.334,0-102.5,0
			C846.596,522.891,846.596,525.391,848.209,525.391L848.209,525.391z"/>
	</g>
</g>
<g>
	<g>
		<path fill="#FFFFFF" d="M811.83,506.966c-0.656-17.104-16.525-28.766-33.037-23.736c0.527,0.401,1.055,0.804,1.582,1.205
			c-1.773-15.03-16.617-24.063-30.777-18.37c-1.477,0.594-0.834,3.013,0.664,2.41c12.484-5.019,26.012,2.384,27.613,15.96
			c0.092,0.774,0.732,1.464,1.582,1.205c14.91-4.54,29.275,5.775,29.873,21.326C809.391,508.573,811.891,508.579,811.83,506.966
			L811.83,506.966z"/>
	</g>
</g>
</svg>
