<?xml version="1.0" encoding="utf-8"?>
<!-- Generator: Adobe Illustrator 16.0.0, SVG Export Plug-In . SVG Version: 6.00 Build 0)  -->
<!DOCTYPE svg PUBLIC "-//W3C//DTD SVG 1.0//EN" "http://www.w3.org/TR/2001/REC-SVG-20010904/DTD/svg10.dtd">
<svg version="1.0" id="Layer_1" xmlns="http://www.w3.org/2000/svg" xmlns:xlink="http://www.w3.org/1999/xlink" x="0px" y="0px"
	 width="329.979px" height="78.395px" viewBox="0 0 329.979 78.395" enable-background="new 0 0 329.979 78.395"
	 xml:space="preserve">
<g>
	<g>
		<path fill="#262626" d="M0.604,78.395c39.344,0,78.688,0,118.032,0c59.852,0,119.705,0,179.557,0c10.394,0,20.788,0,31.182,0
			c0.806,0,0.806-1.25,0-1.25c-39.344,0-78.688,0-118.032,0c-59.852,0-119.704,0-179.557,0c-10.394,0-20.788,0-31.182,0
			C-0.202,77.145-0.202,78.395,0.604,78.395L0.604,78.395z"/>
	</g>
</g>
<g>
	<g>
		<g opacity="0.9">
			<polygon fill="#262626" stroke="#262626" stroke-width="0.25" stroke-miterlimit="10" points="183.203,12.205 184.5,14.827 
				187.396,15.252 185.301,17.292 185.795,20.18 183.203,18.816 180.611,20.18 181.107,17.292 179.01,15.252 181.908,14.827 			"/>
		</g>
	</g>
	<path fill="#262626" stroke="#262626" stroke-width="0.25" stroke-miterlimit="10" d="M192.211,13.957
		c-0.172-0.859,0.863-3.354-2.002-4.101c-1.426-0.375-1.582-0.948-2.373-1.643c-1.012-0.889-4.258-2.142-6.68-0.889
		c-2.422,1.255-2.721,1.14-3.822,1.264c-1.1,0.12-2.242,0.145-3.314,1.892c-1.074,1.748-0.217,5.73-0.217,5.73
		c0.063,1.375-0.367,1.838-0.322,3.307c0.043,1.472,0.814,2.392,1.549,2.726c0.738,0.337,1.379,0.555,2.941,2.328
		c1.563,1.778,3.004,1.931,4.656,1.837c1.654-0.091,2.635-1.07,4.197-0.916c1.563,0.151,3.156,0.119,3.889-1.102
		c0.738-1.225,0.715-2.852,1.203-3.709c0.492-0.86,2.02-1.647,2.031-2.994C193.953,16.362,192.545,15.644,192.211,13.957z
		 M181.633,7.547c0.342-0.159,1.832-0.872,3.789-0.253c0.523,0.164,0.715,0.382,0.488,0.29c-0.475-0.188-1.916-0.303-2.098-0.303
		c-0.484,0-1.662,0.183-2.207,0.369c0,0-0.521,0.159-0.553,0.176C181.053,7.826,181.164,7.763,181.633,7.547z M174.93,10.616
		c-0.762,0.554-0.967,1.589-0.967,1.589s-0.391-0.164,0.621-1.771c1.01-1.608,2.525-1.538,2.873-1.449
		c0.344,0.094,0.344,0.323-0.531,0.534C176.055,9.722,175.686,10.065,174.93,10.616z M181.393,26.242
		c-2.088-0.198-2.941-1.508-2.941-1.508s0.783,0.835,1.721,1.071c2.092,0.518,3.094,0.089,3.184,0.13
		C183.451,25.973,183.389,26.429,181.393,26.242z M183.221,24.105c-4.109,0-7.441-3.334-7.441-7.445s3.332-7.448,7.441-7.448
		c4.117,0,7.445,3.337,7.445,7.448S187.338,24.105,183.221,24.105z M190.084,24.904c-0.635,0.599-2.535,0.467-2.535,0.467
		s-1.25-0.031,0.055-0.051c1.313-0.028,1.445-0.063,2.113-0.416c0.902-0.48,1.275-1.549,1.379-1.922
		c0.014-0.044,0.025-0.085,0.035-0.131c0,0-0.008,0.05-0.035,0.131C190.863,23.912,190.686,24.335,190.084,24.904z M193.096,18.502
		c-0.055-0.172-0.027-0.427,0.029-0.65c0.055-0.226,0.037-0.743-0.049-1.191c-0.086-0.455-0.883-1.418-0.756-1.331
		c0.125,0.085,0.324,0.325,0.648,0.681c0.322,0.349,0.828,1.295,0.479,2.176C193.262,18.661,193.096,18.502,193.096,18.502z"/>
</g>
<path fill="none" stroke="#262626" stroke-width="0.25" stroke-miterlimit="10" d="M194.848,8.924"/>
<g>
	<g>
		<path fill="#262626" d="M203.834,33.184c-12.356,0-24.712,0-37.068,0c-2.258,0-4.517,0-6.775,0c-1.417,0-0.36-0.179-0.36,0.586
			c0-0.746,0-1.492,0-2.238c0-7.335,0-14.671,0-22.007c0-2.657,0-5.313,0-7.97c0-1.373,0.063-0.304-0.511-0.304
			c0.678,0,1.356,0,2.034,0c6.756,0,13.511,0,20.267,0c6.755,0,13.511,0,20.266,0c0.632,0,1.263,0,1.895,0
			c0.306,0-0.371-1.091-0.371-0.022c0,2.766,0,5.531,0,8.296c0,8.095,0,16.189,0,24.284c0,0.806,1.25,0.806,1.25,0
			c0-11.061,0-22.123,0-33.184c0-0.341-0.284-0.625-0.625-0.625c-14.943,0-29.886,0-44.829,0c-0.341,0-0.625,0.284-0.625,0.625
			c0,11.061,0,22.123,0,33.184c0,0.341,0.284,0.625,0.625,0.625c14.943,0,29.885,0,44.829,0
			C204.64,34.434,204.64,33.184,203.834,33.184z"/>
	</g>
</g>
<g>
	<g>
		<path fill="#262626" d="M203.834,12.056c4.091,0,8.182,0,12.273,0c0.837,0,1.675,0,2.512,0c1.123,0,0.049-0.749-0.029-0.493
			c-0.646,2.11-1.29,4.221-1.936,6.331c-0.666,2.18-3.211,6.859-2.512,9.149c1.398,4.577,2.797,9.154,4.195,13.731
			c0.454,1.486,1.424,0.331-0.06,0.331c-1.922,0-3.844,0-5.766,0c-5.675,0-11.351,0-17.025,0c-2.733,0-5.468,0-8.201,0
			c-1.13,0-2.261,0-3.391,0c-0.66-0.116-0.685,0.021-0.071,0.41c0-0.764,0-1.527,0-2.291c0-1.805,0-3.61,0-5.415
			c0-0.806-1.25-0.806-1.25,0c0,2.64,0,5.28,0,7.921c0,0.341,0.284,0.625,0.625,0.625c12.028,0,24.056,0,36.084,0
			c0.397,0,0.722-0.4,0.603-0.791c-1.535-5.025-3.07-10.05-4.605-15.075c-0.28-0.917,1.831-5.814,2.291-7.318
			c0.771-2.524,1.543-5.049,2.314-7.574c0.119-0.391-0.205-0.791-0.603-0.791c-5.149,0-10.3,0-15.449,0
			C203.028,10.806,203.028,12.056,203.834,12.056L203.834,12.056z"/>
	</g>
</g>
<g>
	<g>
		<path fill="#262626" d="M183.365,42.332c6.899-2.641,13.799-5.28,20.697-7.921c0.633-0.242,0.579-1.228-0.166-1.228
			c-6.899,0-13.798,0-20.697,0c-0.341,0-0.625,0.284-0.625,0.625c0,2.64,0,5.28,0,7.921c0,0.806,1.25,0.806,1.25,0
			c0-2.512,0-5.024,0-7.536c0-0.051-1.077,0.24,0.355,0.24c1.303,0,2.605,0,3.908,0c5.27,0,10.539,0,15.809,0
			c-0.056-0.409-0.11-0.818-0.166-1.228c-6.899,2.64-13.799,5.28-20.697,7.921C182.288,41.412,182.611,42.621,183.365,42.332z"/>
	</g>
</g>
<g>
	<g>
		<path fill="#262626" d="M161.357,34.008c0,14.196,0,28.394,0,42.59c0,0.806,1.25,0.806,1.25,0c0-14.196,0-28.394,0-42.59
			C162.607,33.202,161.357,33.202,161.357,34.008L161.357,34.008z"/>
	</g>
</g>
<g>
	<g>
		<path fill="#262626" d="M165.318,30.938c0-9.094,0-18.188,0-27.282c0-0.806-1.25-0.806-1.25,0c0,9.094,0,18.188,0,27.282
			C164.068,31.744,165.318,31.744,165.318,30.938L165.318,30.938z"/>
	</g>
</g>
<line fill="none" stroke="#262626" stroke-miterlimit="10" x1="187.264" y1="34.008" x2="187.264" y2="39.911"/>
<line fill="none" stroke="#262626" stroke-miterlimit="10" x1="191.199" y1="34.008" x2="191.199" y2="38.666"/>
<line fill="none" stroke="#262626" stroke-miterlimit="10" x1="195.055" y1="34.008" x2="195.055" y2="37.106"/>
<line fill="none" stroke="#262626" stroke-width="0.25" stroke-miterlimit="10" x1="198.99" y1="34.008" x2="198.99" y2="35.737"/>
<g>
</g>
<g>
</g>
<g>
</g>
<g>
</g>
<g>
</g>
<g>
</g>
<g>
</g>
<g>
</g>
<g>
</g>
<g>
</g>
<g>
</g>
<g>
</g>
<g>
</g>
<g>
</g>
<g>
</g>
</svg>
