<?xml version="1.0" encoding="utf-8"?>
<!-- Generator: Adobe Illustrator 16.0.0, SVG Export Plug-In . SVG Version: 6.00 Build 0)  -->
<!DOCTYPE svg PUBLIC "-//W3C//DTD SVG 1.1//EN" "http://www.w3.org/Graphics/SVG/1.1/DTD/svg11.dtd">
<svg version="1.1" id="Layer_1" xmlns="http://www.w3.org/2000/svg" xmlns:xlink="http://www.w3.org/1999/xlink" x="0px" y="0px"
	 width="68.008px" height="34.141px" viewBox="91.342 108.376 68.008 34.141" enable-background="new 91.342 108.376 68.008 34.141"
	 xml:space="preserve">
<g>
	<g>
		<g>
			<g opacity="0.9">
				<polygon fill="#262626" points="125.727,119.082 126.766,121.179 129.082,121.518 127.404,123.15 127.8,125.459 
					125.727,124.369 123.654,125.459 124.051,123.15 122.375,121.518 124.692,121.179 				"/>
			</g>
		</g>
		<path fill="#262626" d="M132.932,120.482c-0.138-0.687,0.688-2.682-1.601-3.277c-1.144-0.302-1.269-0.76-1.899-1.315
			c-0.81-0.71-3.404-1.712-5.341-0.71c-1.936,1.003-2.175,0.912-3.056,1.01c-0.882,0.098-1.795,0.116-2.652,1.514
			c-0.858,1.398-0.172,4.582-0.172,4.582c0.05,1.1-0.293,1.471-0.258,2.645c0.033,1.176,0.651,1.911,1.238,2.18
			c0.59,0.271,1.104,0.443,2.352,1.861c1.251,1.423,2.402,1.545,3.725,1.469c1.322-0.071,2.105-0.854,3.355-0.731
			c1.252,0.121,2.525,0.096,3.111-0.881c0.59-0.979,0.57-2.279,0.963-2.965c0.393-0.689,1.613-1.319,1.623-2.396
			C134.326,122.406,133.199,121.831,132.932,120.482z M124.471,115.355c0.274-0.125,1.466-0.695,3.031-0.201
			c0.42,0.133,0.572,0.306,0.391,0.231c-0.379-0.15-1.533-0.242-1.678-0.242c-0.387,0-1.329,0.147-1.765,0.296
			c0,0-0.417,0.127-0.442,0.141C124.007,115.58,124.098,115.53,124.471,115.355z M119.111,117.813
			c-0.607,0.441-0.773,1.27-0.773,1.27s-0.312-0.131,0.497-1.417c0.808-1.284,2.02-1.229,2.296-1.157
			c0.275,0.074,0.275,0.257-0.423,0.425C120.011,117.096,119.716,117.371,119.111,117.813z M124.279,130.307
			c-1.669-0.157-2.353-1.205-2.353-1.205s0.627,0.667,1.378,0.855c1.673,0.414,2.471,0.071,2.545,0.104
			C125.925,130.092,125.875,130.458,124.279,130.307z M125.744,128.598c-3.288,0-5.954-2.665-5.954-5.953
			c0-3.289,2.666-5.956,5.954-5.956c3.289,0,5.951,2.667,5.951,5.956C131.695,125.933,129.033,128.598,125.744,128.598z
			 M131.232,129.237c-0.508,0.479-2.029,0.374-2.029,0.374s-1-0.024,0.045-0.041c1.049-0.022,1.154-0.051,1.689-0.333
			c0.723-0.384,1.02-1.236,1.104-1.535c0.01-0.035,0.018-0.068,0.027-0.105c0,0-0.008,0.039-0.027,0.105
			C131.854,128.443,131.712,128.782,131.232,129.237z M133.639,124.117c-0.046-0.137-0.021-0.34,0.022-0.52
			c0.044-0.18,0.03-0.594-0.039-0.953c-0.067-0.363-0.705-1.133-0.604-1.064c0.101,0.068,0.26,0.26,0.519,0.544
			c0.26,0.28,0.662,1.036,0.383,1.741C133.773,124.244,133.639,124.117,133.639,124.117z"/>
	</g>
	<path fill="none" stroke="#262626" stroke-width="0.25" stroke-miterlimit="10" d="M139.189,115.635"/>
	<g>
		<g>
			<path fill="#262626" d="M146.376,134.911c-12.3,0-24.6,0-36.899,0c-1.679,0-3.357,0-5.036,0c0.607,0,0.504,1.01,0.504-0.517
				c0-1.53,0-3.062,0-4.591c0-6.793,0-13.585,0-20.378c0-0.768-1.072,0.2-0.153,0.2c0.763,0,1.525,0,2.287,0c3.21,0,6.421,0,9.631,0
				c7.698,0,15.396,0,23.095,0c2.032,0,4.065,0,6.098,0c0.92,0-0.151-0.967-0.151-0.2c0,1.24,0,2.48,0,3.721
				c0,7.083,0,14.166,0,21.249c0,0.381,0,0.762,0,1.141c0,0.807,1.25,0.807,1.25,0c0-8.845,0-17.689,0-26.535
				c0-0.341-0.284-0.625-0.625-0.625c-14.019,0-28.038,0-42.056,0c-0.341,0-0.625,0.284-0.625,0.625c0,8.845,0,17.69,0,26.535
				c0,0.342,0.284,0.625,0.625,0.625c14.019,0,28.038,0,42.056,0C147.182,136.161,147.182,134.911,146.376,134.911z"/>
		</g>
	</g>
	<g>
		<g>
			<path fill="#262626" d="M146.382,118.304c2.956-0.009,5.912-0.019,8.869-0.028c1.129-0.004,2.259-0.007,3.39-0.011
				c-0.808,0.002-0.393-1.319-0.683-0.056c-0.205,0.893-0.411,1.785-0.616,2.677c-0.667,2.9-1.333,5.801-2,8.701
				c-0.439,1.91,1.174,5.435,1.602,7.297c0.339,1.472,0.677,2.943,1.016,4.414c0.171,0.748,1.221-0.055-0.68-0.055
				c-3.67,0-7.338,0-11.008,0c-2.264,0-4.526,0-6.791,0c-2.642,0-1.832,0.853-1.832-1.805c0-1.303,0-2.604,0-3.904
				c0-0.806-1.25-0.806-1.25,0c0,2.111,0,4.223,0,6.334c0,0.342,0.283,0.625,0.625,0.625c7.234,0,14.472,0,21.707,0
				c0.42,0,0.692-0.396,0.603-0.791c-0.922-4.009-1.843-8.019-2.765-12.027c-0.196-0.852,1.057-4.44,1.371-5.813
				c0.465-2.019,0.93-4.038,1.394-6.057c0.091-0.393-0.183-0.792-0.603-0.791c-4.116,0.013-8.231,0.026-12.349,0.039
				C145.577,117.056,145.576,118.306,146.382,118.304L146.382,118.304z"/>
		</g>
	</g>
	<g>
		<g>
			<path fill="#262626" d="M137.344,142.409c3.118-2.111,6.235-4.223,9.354-6.334c0.499-0.338,0.335-1.164-0.315-1.164
				c-3.117,0-6.234,0-9.354,0c-0.342,0-0.625,0.283-0.625,0.625c0,2.11,0,4.223,0,6.334c0,0.805,1.25,0.805,1.25,0
				c0-2.111,0-4.224,0-6.334c-0.209,0.207-0.418,0.416-0.625,0.625c3.117,0,6.234,0,9.354,0c-0.105-0.39-0.21-0.777-0.314-1.166
				c-3.118,2.111-6.235,4.223-9.354,6.334C136.05,141.778,136.674,142.862,137.344,142.409z"/>
		</g>
	</g>
	<g>
		<g>
			<path fill="#262626" d="M138.73,135.695c0,0.824,0,1.647,0,2.474c0,0.806,1.25,0.806,1.25,0c0-0.824,0-1.648,0-2.474
				C139.98,134.89,138.73,134.89,138.73,135.695L138.73,135.695z"/>
		</g>
	</g>
	<g>
		<g>
			<path fill="#262626" d="M141.281,135.536c0,0.396,0,0.795,0,1.192c0,0.806,1.25,0.806,1.25,0c0-0.397,0-0.796,0-1.192
				C142.531,134.729,141.281,134.729,141.281,135.536L141.281,135.536z"/>
		</g>
	</g>
	<g>
		<g>
			<path fill="#262626" d="M104.311,117.015c-4.116,0-8.232,0-12.348,0c-0.419,0-0.693,0.397-0.603,0.791
				c0.921,4.009,1.843,8.019,2.765,12.026c0.196,0.852-1.057,4.44-1.372,5.813c-0.464,2.02-0.929,4.038-1.393,6.059
				c-0.091,0.394,0.183,0.791,0.603,0.791c7.236,0,14.472,0,21.708,0c0.341,0,0.625-0.285,0.625-0.625c0-2.111,0-4.224,0-6.334
				c0-0.807-1.25-0.807-1.25,0c0,1.039,0,2.08,0,3.121c0,0.807,0,1.611,0,2.418c0,0.725,0.624,0.17-1.035,0.17
				c-2.237,0-4.474,0-6.711,0c-3.767,0-7.534,0-11.301,0c-0.495,0-0.991,0-1.486,0c-1.054,0,0.254-0.084,0.073,0.703
				c0.32-1.393,0.64-2.785,0.96-4.178c0.567-2.466,1.827-5.475,1.827-8.018c0-2.541-1.26-5.549-1.827-8.016
				c-0.301-1.309-0.602-2.617-0.902-3.925c-0.157-0.682-1.024,0.452-0.335,0.452c0.774,0,1.547,0,2.321,0c3.227,0,6.454,0,9.681,0
				C105.117,118.265,105.117,117.015,104.311,117.015L104.311,117.015z"/>
		</g>
	</g>
	<g>
		<g>
			<path fill="#262626" d="M113.986,141.329c-3.118-2.111-6.236-4.223-9.354-6.334c-0.105,0.389-0.21,0.776-0.315,1.166
				c3.118,0,6.236,0,9.354,0c-0.208-0.209-0.417-0.418-0.625-0.625c0,2.11,0,4.223,0,6.334c0,0.805,1.25,0.805,1.25,0
				c0-2.111,0-4.224,0-6.334c0-0.342-0.284-0.625-0.625-0.625c-3.118,0-6.236,0-9.354,0c-0.651,0-0.814,0.826-0.315,1.164
				c3.118,2.111,6.236,4.223,9.354,6.334C114.025,142.862,114.65,141.778,113.986,141.329z"/>
		</g>
	</g>
	<g>
		<g>
			<path fill="#262626" d="M110.72,135.695c0,0.824,0,1.647,0,2.474c0,0.806,1.25,0.806,1.25,0c0-0.824,0-1.648,0-2.474
				C111.97,134.89,110.72,134.89,110.72,135.695L110.72,135.695z"/>
		</g>
	</g>
	<g>
		<g>
			<path fill="#262626" d="M108.17,135.536c0,0.396,0,0.795,0,1.192c0,0.806,1.25,0.806,1.25,0c0-0.397,0-0.796,0-1.192
				C109.42,134.729,108.17,134.729,108.17,135.536L108.17,135.536z"/>
		</g>
	</g>
</g>
</svg>
