<?xml version="1.0" encoding="utf-8"?>
<!-- Generator: Adobe Illustrator 16.0.0, SVG Export Plug-In . SVG Version: 6.00 Build 0)  -->
<svg version="1.2" baseProfile="tiny" id="Layer_1" xmlns="http://www.w3.org/2000/svg" xmlns:xlink="http://www.w3.org/1999/xlink"
	 x="0px" y="0px" width="585.652px" height="174.287px" viewBox="0 0 585.652 174.287" xml:space="preserve">
<g>
	<g>
		<path fill="#FFFFFF" d="M49.97,97.574v0.989h10.356l-2.275-9.051C58.051,89.512,55.527,94.537,49.97,97.574z"/>
		<path fill="#FFFFFF" d="M49.97,98.563v-0.989h10.356l-2.12,9.222C58.206,106.795,55.527,101.592,49.97,98.563z"/>
		<path fill="#FFFFFF" d="M537.252,98.099v0.999h-10.363l2.277-9.053C529.166,90.045,531.691,95.081,537.252,98.099z"/>
		<path fill="#FFFFFF" d="M537.252,99.098v-0.999h-10.363l2.125,9.223C529.014,107.322,531.691,102.127,537.252,99.098z"/>
		<g>
			<path fill="#FFFFFF" d="M103.935,85.226c-3.685-6.201-9.881-10.593-19.218-10.593c-13.257,0-22.667,9.809-22.667,23.217
				c0,13.419,9.409,23.219,22.667,23.219c9.337,0,15.533-4.393,19.218-10.585h0.944v15.218h-0.864l-4.082-4.392
				c-4.314,2.743-9.177,4.392-14.744,4.392c-17.103,0-28.397-12.473-28.397-27.852C56.793,82.473,68.087,70,85.19,70
				c5.647,0,10.51,1.577,14.825,4.401l4-4.401h0.864v15.227H103.935z"/>
			<path fill="#FFFFFF" d="M180.903,97.85c0,15.77-12.629,27.852-27.848,27.852c-15.141,0-27.846-12.082-27.846-27.852
				C125.21,81.769,137.915,70,153.056,70C168.274,70,180.903,81.769,180.903,97.85z M130.698,97.85
				c0,12.313,9.177,23.219,22.358,23.219c13.259,0,22.358-10.906,22.358-23.219c0-12.704-9.1-23.217-22.358-23.217
				C139.875,74.633,130.698,85.226,130.698,97.85z"/>
			<path fill="#FFFFFF" d="M244.526,124.526h-10.201L211.89,97.85v-1.096h7.217c7.298,0,12.551-3.608,12.551-10.594
				c0-6.903-5.253-10.512-12.551-10.512h-9.648v44.795l6.432,3.217v0.865h-17.488v-0.865l6.116-3.296V75.337l-6.116-3.297v-0.855
				h22.274c9.1,0,16.397,5.961,16.397,15.057c0,9.177-8.63,14.514-16.792,14.746l17.027,18.904l7.217,3.769V124.526z"/>
			<path fill="#FFFFFF" d="M289.546,81.296c-2.744-3.999-7.84-6.503-12.945-6.503c-5.803,0-10.041,3.76-10.041,9.096
				c0,6.665,5.024,8.945,14.83,13.258c6.275,2.744,11.216,6.513,11.216,14.122c0,7.367-5.412,14.433-16.318,14.433
				c-5.959,0-11.527-2.201-15.217-5.648v-7.457h0.864c3.137,5.417,8.786,8.4,15.062,8.4c6.981,0,10.354-4.552,10.354-9.186
				c0-6.433-3.685-8.473-15.926-13.72c-6.193-2.673-10.194-6.673-10.194-14.121c0-8.321,7.057-13.971,15.293-13.971
				c6.357,0,11.142,2.2,13.806,4.16v7.137H289.546z"/>
			<path fill="#FFFFFF" d="M363.914,123.661v0.865h-17.022v-0.865l6.038-3.217l-5.646-13.648h-21.34l-5.487,13.569h0.392
				l6.042,3.296v0.865h-17.263v-0.865l6.038-4.311l20.715-49.422h0.941l20.631,49.492L363.914,123.661z M345.479,102.404
				l-9.021-21.891l-8.782,21.891H345.479z"/>
			<path fill="#FFFFFF" d="M426.368,124.526h-10.196L393.733,97.85v-1.096h7.217c7.296,0,12.553-3.608,12.553-10.594
				c0-6.903-5.257-10.512-12.553-10.512h-9.648v44.795l6.433,3.217v0.865h-17.496v-0.865l6.123-3.296V75.337l-6.123-3.297v-0.855
				h22.284c9.097,0,16.395,5.961,16.395,15.057c0,9.177-8.63,14.514-16.792,14.746l17.027,18.904l7.216,3.769V124.526z"/>
			<path fill="#FFFFFF" d="M453.19,75.337v45.027l6.041,3.296v0.865h-17.103v-0.865l6.121-3.296V75.337l-6.121-3.297v-0.855h17.103
				v0.855L453.19,75.337z"/>
			<path fill="#FFFFFF" d="M531.991,97.85c0,15.77-12.632,27.852-27.851,27.852c-15.139,0-27.848-12.082-27.848-27.852
				c0-16.081,12.709-27.851,27.848-27.851C519.359,70,531.991,81.769,531.991,97.85z M481.785,97.85
				c0,12.313,9.178,23.219,22.355,23.219c13.257,0,22.357-10.906,22.357-23.219c0-12.704-9.101-23.217-22.357-23.217
				C490.963,74.633,481.785,85.226,481.785,97.85z"/>
		</g>
	</g>
	<g>
		<path fill="#FFFFFF" d="M241.762,146.93h-12.726v5.043h11.69v4.242h-11.69v6.213h13.293v4.242h-18.204v-23.982h17.636V146.93z"/>
		<path fill="#FFFFFF" d="M249.98,159.288c0.034,1.336,0.702,3.875,5.077,3.875c2.372,0,5.011-0.568,5.011-3.105
			c0-1.871-1.804-2.373-4.343-2.973l-2.572-0.602c-3.875-0.902-7.616-1.771-7.616-7.049c0-2.672,1.437-7.381,9.219-7.381
			c7.349,0,9.319,4.811,9.353,7.748h-4.81c-0.134-1.068-0.534-3.607-4.91-3.607c-1.904,0-4.175,0.703-4.175,2.873
			c0,1.871,1.537,2.271,2.539,2.506l5.846,1.436c3.272,0.803,6.279,2.139,6.279,6.447c0,7.215-7.349,7.85-9.453,7.85
			c-8.751,0-10.254-5.045-10.254-8.018H249.98z"/>
		<path fill="#FFFFFF" d="M278.874,166.67h-5.01v-19.74h-7.248v-4.242h19.506v4.242h-7.248V166.67z"/>
		<path fill="#FFFFFF" d="M308.302,158.286c0,6.313-3.808,9.02-9.854,9.02c-2.204,0-5.478-0.535-7.615-2.906
			c-1.303-1.471-1.804-3.408-1.87-5.813v-15.898h5.11v15.564c0,3.34,1.937,4.811,4.275,4.811c3.44,0,4.843-1.67,4.843-4.576v-15.799
			h5.11V158.286z"/>
		<path fill="#FFFFFF" d="M313.213,142.688h10.589c8.083,0,9.753,6.881,9.753,11.424c0,5.143-2.037,12.559-9.953,12.559h-10.389
			V142.688z M318.123,162.528H323c4.075,0,5.444-4.107,5.444-8.049c0-7.082-3.373-7.65-5.511-7.65h-4.811V162.528z"/>
		<path fill="#FFFFFF" d="M341.94,166.67h-5.01v-23.982h5.01V166.67z"/>
		<path fill="#FFFFFF" d="M357.072,142.053c3.173,0,11.523,1.369,11.523,12.625c0,11.258-8.351,12.627-11.523,12.627
			s-11.523-1.369-11.523-12.627C345.549,143.422,353.899,142.053,357.072,142.053z M357.072,163.063c2.705,0,6.514-1.67,6.514-8.385
			c0-6.713-3.809-8.383-6.514-8.383s-6.514,1.67-6.514,8.383C350.559,161.393,354.367,163.063,357.072,163.063z"/>
	</g>
	<g>
		<path fill="#FFFFFF" d="M319.869,22.021c-0.522-2.645,2.655-10.317-6.156-12.615c-4.389-1.159-4.87-2.913-7.301-5.052
			c-3.119-2.726-13.104-6.584-20.547-2.726c-7.442,3.849-8.365,3.492-11.76,3.876c-3.385,0.382-6.9,0.455-10.197,5.817
			c-3.296,5.372-0.66,17.632-0.66,17.632c0.188,4.24-1.125,5.658-0.997,10.166c0.135,4.535,2.509,7.369,4.767,8.392
			c2.262,1.034,4.242,1.711,9.048,7.155c4.808,5.471,9.234,5.952,14.322,5.657c5.093-0.276,8.103-3.297,12.905-2.823
			c4.811,0.463,9.716,0.373,11.979-3.387c2.263-3.769,2.187-8.766,3.697-11.405c1.509-2.654,6.21-5.068,6.24-9.212
			C325.233,29.425,320.902,27.208,319.869,22.021z M292.219,53.231c-12.638,0-22.893-10.246-22.893-22.888
			c0-12.651,10.255-22.914,22.893-22.914c12.655,0,22.905,10.263,22.905,22.914C315.124,42.985,304.874,53.231,292.219,53.231z"/>
		<path fill="#FFFFFF" d="M263.736,16.631c0,0,0.64-3.189,2.974-4.882c2.327-1.702,3.462-2.753,6.146-3.386
			c2.685-0.642,2.685-1.337,1.623-1.63c-1.061-0.276-5.723-0.499-8.833,4.445C262.537,16.125,263.736,16.631,263.736,16.631z"/>
		<path fill="#FFFFFF" d="M285.545,3.16c0,0,0.353-0.195,1.782-0.855c1.056-0.481,5.644-2.681,11.667-0.774
			c1.604,0.508,2.195,1.175,1.49,0.891c-1.455-0.587-5.887-0.944-6.452-0.944c-1.479,0-5.105,0.571-6.79,1.14
			C287.242,2.616,285.643,3.106,285.545,3.16z"/>
		<path fill="#FFFFFF" d="M292.633,58.873c-0.285-0.126-3.359,1.192-9.792-0.402c-2.886-0.721-5.301-3.296-5.301-3.296
			s2.627,4.026,9.048,4.641C292.73,60.395,292.917,58.978,292.633,58.873z"/>
		<path fill="#FFFFFF" d="M305.529,57.143c0,0,5.854,0.4,7.803-1.451c1.943-1.836,2.438-3.164,3.218-6.31
			c0,0-0.961,4.518-4.353,6.31c-2.048,1.086-2.453,1.202-6.494,1.281C301.686,57.037,305.529,57.143,305.529,57.143z"/>
		<g>
			<image width="27" height="26" xlink:href="3CB76A50.png"  transform="matrix(1 0 0 1 278.7734 15.9165)">
			</image>
		</g>
		<path fill="#FFFFFF" d="M322.587,36c0,0,0.517,0.49,1.086-0.961c1.079-2.718-0.472-5.623-1.47-6.708
			c-0.994-1.079-1.608-1.827-1.997-2.086c-0.391-0.266,2.067,2.691,2.332,4.099c0.258,1.373,0.312,2.967,0.146,3.663
			C322.506,34.69,322.417,35.467,322.587,36z"/>
	</g>
	<path fill="#FFFFFF" d="M4.563,132.572H0V66.124l2.571,0.33c0.143,0.026,14.835,1.8,25.896-5.328
		c11.249-7.234,12.629-19.6,12.646-19.725l0.205-2.049h2.063h199.394v4.562H45.31c-0.899,4.321-4.045,14.406-14.375,21.053
		c-9.653,6.208-21.279,6.468-26.371,6.219V132.572z"/>
	<path fill="#FFFFFF" d="M210.46,161.936H41.318l-0.205-2.049c-0.017-0.125-1.397-12.491-12.646-19.725
		c-11.061-7.12-25.753-5.355-25.896-5.328l-2.568,0.328L0,68.716h4.563v61.387c5.092-0.249,16.717,0,26.371,6.219
		c10.331,6.646,13.476,16.732,14.375,21.053H210.46V161.936z"/>
	<path fill="#FFFFFF" d="M585.652,132.572h-4.562V71.185c-5.097,0.249-16.724-0.011-26.372-6.219
		c-10.326-6.647-13.472-16.732-14.383-21.053H342.877v-4.562H544.33l0.215,2.049c0.008,0.125,1.396,12.49,12.642,19.725
		c11.065,7.128,25.748,5.354,25.892,5.328l2.574-0.33V132.572z"/>
	<path fill="#FFFFFF" d="M542.272,161.936h-167.08v-4.562h165.144c0.911-4.32,4.057-14.407,14.383-21.053
		c9.648-6.219,21.275-6.468,26.372-6.219V68.716h4.562v66.446l-2.574-0.328c-0.144-0.027-14.826-1.8-25.892,5.328
		c-11.246,7.233-12.634,19.6-12.642,19.725l-0.215,2.049H542.272z"/>
	<rect x="160.095" y="27.438" fill="#FFFFFF" width="78.69" height="4.563"/>
	<path fill="#FFFFFF" d="M227.381,53.935v-4.562h24.642c-3.292-4.892-7.961-14.451-7.956-29.338h-121.54v-4.563h126.212
		l-0.074,2.362c-0.714,21.953,9.568,32.064,9.67,32.164l4.099,3.929L227.381,53.935z"/>
	<g>
		<rect x="346.869" y="27.438" fill="#FFFFFF" width="78.688" height="4.563"/>
		<path fill="#FFFFFF" d="M358.272,53.935h-35.13l4.18-3.946c0.098-0.09,10.379-10.201,9.665-32.154l-0.079-2.362h126.217v4.563
			H341.584c0,14.887-4.657,24.446-7.954,29.338h24.643V53.935z"/>
	</g>
</g>
<g>
</g>
<g>
</g>
<g>
</g>
<g>
</g>
<g>
</g>
<g>
</g>
<g>
</g>
<g>
</g>
<g>
</g>
<g>
</g>
<g>
</g>
<g>
</g>
<g>
</g>
<g>
</g>
<g>
</g>
</svg>
