<?xml version="1.0" encoding="utf-8"?>
<!-- Generator: Adobe Illustrator 16.0.0, SVG Export Plug-In . SVG Version: 6.00 Build 0)  -->
<!DOCTYPE svg PUBLIC "-//W3C//DTD SVG 1.0//EN" "http://www.w3.org/TR/2001/REC-SVG-20010904/DTD/svg10.dtd">
<svg version="1.0" id="Layer_1" xmlns="http://www.w3.org/2000/svg" xmlns:xlink="http://www.w3.org/1999/xlink" x="0px" y="0px"
	 width="339.652px" height="102.202px" viewBox="0 0 339.652 102.202" enable-background="new 0 0 339.652 102.202"
	 xml:space="preserve">
<path fill="#FFFFFF" d="M28.98,56.588v0.573h6.006l-1.319-5.249C33.667,51.913,32.203,54.827,28.98,56.588z"/>
<path fill="#FFFFFF" d="M28.98,57.162v-0.573h6.006l-1.229,5.348C33.757,61.936,32.203,58.918,28.98,57.162z"/>
<path fill="#FFFFFF" d="M311.582,56.893v0.579h-6.01l1.32-5.25C306.893,52.222,308.357,55.142,311.582,56.893z"/>
<path fill="#FFFFFF" d="M311.582,57.472v-0.579h-6.01l1.232,5.349C306.805,62.242,308.357,59.229,311.582,57.472z"/>
<g>
	<path fill="#FFFFFF" d="M60.277,49.427c-2.137-3.597-5.73-6.144-11.146-6.144c-7.688,0-13.146,5.688-13.146,13.465
		c0,7.782,5.457,13.466,13.146,13.466c5.415,0,9.009-2.548,11.146-6.139h0.548v8.825h-0.501l-2.367-2.547
		c-2.502,1.591-5.322,2.547-8.551,2.547c-9.919,0-16.469-7.233-16.469-16.152c0-8.918,6.55-16.152,16.469-16.152
		c3.275,0,6.096,0.915,8.598,2.553l2.32-2.553h0.501v8.831H60.277z"/>
	<path fill="#FFFFFF" d="M104.916,56.749c0,9.146-7.324,16.152-16.15,16.152c-8.781,0-16.149-7.007-16.149-16.152
		c0-9.326,7.368-16.152,16.149-16.152C97.592,40.596,104.916,47.422,104.916,56.749z M75.799,56.749
		c0,7.141,5.322,13.466,12.967,13.466c7.689,0,12.967-6.325,12.967-13.466c0-7.368-5.277-13.465-12.967-13.465
		C81.121,43.284,75.799,49.427,75.799,56.749z"/>
	<path fill="#FFFFFF" d="M141.814,72.219h-5.916l-13.012-15.471v-0.636h4.186c4.232,0,7.279-2.093,7.279-6.144
		c0-4.004-3.047-6.097-7.279-6.097h-5.596v25.979l3.73,1.865v0.502h-10.143v-0.502l3.547-1.911V43.692l-3.547-1.912v-0.496h12.918
		c5.277,0,9.51,3.457,9.51,8.732c0,5.322-5.005,8.417-9.738,8.552l9.875,10.964l4.186,2.186V72.219z"/>
	<path fill="#FFFFFF" d="M167.924,47.148c-1.592-2.319-4.547-3.771-7.508-3.771c-3.365,0-5.823,2.181-5.823,5.275
		c0,3.865,2.914,5.188,8.601,7.688c3.64,1.592,6.505,3.777,6.505,8.19c0,4.272-3.139,8.37-9.464,8.37
		c-3.456,0-6.686-1.276-8.825-3.275V65.3h0.501c1.819,3.142,5.096,4.872,8.735,4.872c4.049,0,6.005-2.64,6.005-5.327
		c0-3.73-2.137-4.914-9.236-7.957c-3.592-1.55-5.912-3.87-5.912-8.189c0-4.826,4.093-8.103,8.869-8.103
		c3.688,0,6.462,1.276,8.007,2.413v4.139H167.924z"/>
	<path fill="#FFFFFF" d="M211.054,71.717v0.502h-9.872v-0.502l3.502-1.865l-3.274-7.916h-12.376l-3.183,7.87h0.228l3.504,1.911
		v0.502H179.57v-0.502l3.502-2.5l12.014-28.662h0.546l11.965,28.703L211.054,71.717z M200.362,59.389l-5.231-12.695l-5.094,12.695
		H200.362z"/>
	<path fill="#FFFFFF" d="M247.274,72.219h-5.913l-13.014-15.471v-0.636h4.186c4.231,0,7.28-2.093,7.28-6.144
		c0-4.004-3.049-6.097-7.28-6.097h-5.596v25.979l3.73,1.865v0.502h-10.146v-0.502l3.551-1.911V43.692l-3.551-1.912v-0.496h12.924
		c5.275,0,9.508,3.457,9.508,8.732c0,5.322-5.005,8.417-9.738,8.552l9.875,10.964l4.185,2.186V72.219z"/>
	<path fill="#FFFFFF" d="M262.83,43.692v26.114l3.504,1.911v0.502h-9.919v-0.502l3.55-1.911V43.692l-3.55-1.912v-0.496h9.919v0.496
		L262.83,43.692z"/>
	<path fill="#FFFFFF" d="M308.531,56.749c0,9.146-7.326,16.152-16.152,16.152c-8.779,0-16.15-7.007-16.15-16.152
		c0-9.326,7.371-16.152,16.15-16.152C301.205,40.596,308.531,47.422,308.531,56.749z M279.414,56.749
		c0,7.141,5.322,13.466,12.965,13.466c7.688,0,12.967-6.325,12.967-13.466c0-7.368-5.278-13.465-12.967-13.465
		C284.736,43.284,279.414,49.427,279.414,56.749z"/>
</g>
<g>
	<g>
		<path fill="#FFFFFF" d="M139.75,94.509v1.59c0,0.349-0.116,0.562-0.562,0.562h-8.682c-0.446,0-0.563-0.213-0.563-0.562V84.471
			c0-0.349,0.116-0.562,0.563-0.562h8.353c0.445,0,0.562,0.213,0.562,0.562v1.608c0,0.349-0.116,0.563-0.562,0.563h-5.853v2.112
			h5.193c0.445,0,0.562,0.213,0.562,0.562v1.512c0,0.349-0.116,0.562-0.562,0.562h-5.193v2.559h6.182
			C139.634,93.948,139.75,94.161,139.75,94.509z"/>
		<path fill="#FFFFFF" d="M151.548,92.881c0,2.752-2.17,4.07-5.154,4.07c-2.423,0-5.213-1.396-5.213-4.108
			c0-0.446,0.116-0.543,0.562-0.543h1.88c0.446,0,0.659,0.059,0.697,0.543c0.02,0.252,0.117,0.504,0.368,0.794
			c0.388,0.466,1.183,0.64,1.899,0.64c1.047,0,1.899-0.232,1.899-1.317s-1.725-1.104-3.372-1.628c-1.957-0.62-3.76-1.396-3.76-3.856
			c0-2.52,2.287-3.76,4.709-3.856c2.462,0,5.155,1.124,5.155,3.682c0,0.466-0.116,0.543-0.563,0.543h-1.898
			c-0.368,0-0.427-0.271-0.523-0.523c-0.077-0.193-0.175-0.349-0.407-0.581c-0.368-0.349-1.065-0.523-1.647-0.523
			c-0.639,0-1.705,0.252-1.705,1.124c0,1.183,2.849,1.608,3.624,1.919C149.494,89.684,151.548,90.247,151.548,92.881z"/>
		<path fill="#FFFFFF" d="M162.997,84.471v1.608c0,0.349-0.116,0.563-0.562,0.563h-2.965v9.457c0,0.445-0.213,0.562-0.563,0.562
			h-1.918c-0.349,0-0.563-0.116-0.563-0.562v-9.457h-2.984c-0.445,0-0.562-0.214-0.562-0.563v-1.608
			c0-0.349,0.116-0.562,0.562-0.562h8.992C162.881,83.91,162.997,84.123,162.997,84.471z"/>
		<path fill="#FFFFFF" d="M175.028,84.471v8.294c0,3.043-2.829,4.187-5.136,4.187c-2.306,0-5.115-1.144-5.115-4.187v-8.294
			c0-0.445,0.213-0.562,0.562-0.562h1.919c0.349,0,0.562,0.116,0.562,0.562v7.868c0,1.221,0.795,1.918,2.073,1.918
			c1.279,0,2.094-0.697,2.094-1.918v-7.868c0-0.445,0.213-0.562,0.562-0.562h1.919C174.815,83.91,175.028,84.026,175.028,84.471z"/>
		<path fill="#FFFFFF" d="M187.853,88.27v4.03c0,3.043-2.907,4.36-5.213,4.36h-4.341c-0.445,0-0.563-0.213-0.563-0.562V84.471
			c0-0.349,0.117-0.562,0.563-0.562h4.341C184.945,83.91,187.853,85.247,187.853,88.27z M184.81,88.541
			c0-1.221-0.891-1.938-2.17-1.938h-1.86v7.364h1.86c1.279,0,2.17-0.698,2.17-1.938V88.541z"/>
		<path fill="#FFFFFF" d="M196.434,94.568v1.531c0,0.349-0.116,0.562-0.562,0.562h-5.484c-0.445,0-0.562-0.213-0.562-0.562v-1.531
			c0-0.349,0.116-0.563,0.562-0.563h1.221v-7.402h-1.182c-0.446,0-0.563-0.213-0.563-0.562v-1.57c0-0.349,0.116-0.562,0.563-0.562
			h5.387c0.446,0,0.563,0.213,0.563,0.562v1.57c0,0.349-0.116,0.562-0.563,0.562h-1.162v7.402h1.221
			C196.317,94.005,196.434,94.219,196.434,94.568z"/>
		<path fill="#FFFFFF" d="M208.95,92.572c0,3.062-2.907,4.38-5.213,4.38c-2.307,0-5.175-1.318-5.175-4.38v-4.573
			c0-3.062,2.868-4.38,5.175-4.38c2.306,0,5.213,1.318,5.213,4.38V92.572z M205.907,88.27c0-1.24-0.892-1.958-2.17-1.958
			c-1.26,0-2.151,0.718-2.151,1.958v4.03c0,1.24,0.892,1.957,2.151,1.957c1.278,0,2.17-0.717,2.17-1.957V88.27z"/>
	</g>
</g>
<g>
	<polygon opacity="0.9" fill="#FFFFFF" points="169.44,9.645 171.752,14.322 176.922,15.082 173.182,18.724 174.064,23.871 
		169.44,21.442 164.818,23.871 165.701,18.724 161.961,15.082 167.131,14.322 	"/>
</g>
<path fill="#FFFFFF" d="M185.51,12.771c-0.303-1.534,1.54-5.983-3.57-7.316c-2.545-0.672-2.824-1.689-4.234-2.93
	c-1.809-1.581-7.6-3.818-11.916-1.581c-4.316,2.232-4.852,2.025-6.82,2.248c-1.963,0.222-4.002,0.264-5.914,3.374
	c-1.911,3.115-0.383,10.226-0.383,10.226c0.109,2.459-0.652,3.281-0.578,5.896c0.078,2.63,1.455,4.273,2.765,4.867
	c1.312,0.6,2.46,0.992,5.247,4.149c2.788,3.173,5.355,3.452,8.307,3.281c2.953-0.16,4.699-1.912,7.484-1.638
	c2.79,0.269,5.635,0.217,6.947-1.964c1.313-2.186,1.269-5.084,2.145-6.614c0.875-1.539,3.602-2.939,3.619-5.343
	C188.621,17.065,186.109,15.779,185.51,12.771z M166.637,1.336c0.612-0.279,3.273-1.555,6.767-0.449
	c0.93,0.295,1.273,0.682,0.864,0.517c-0.844-0.341-3.414-0.548-3.742-0.548c-0.857,0-2.961,0.331-3.938,0.661
	c0,0-0.928,0.284-0.984,0.315C165.604,1.833,165.808,1.719,166.637,1.336z M154.68,6.814c-1.354,0.981-1.725,2.831-1.725,2.831
	s-0.695-0.294,1.107-3.162c1.804-2.867,4.508-2.738,5.123-2.578c0.615,0.17,0.615,0.573-0.941,0.945
	C156.688,5.217,156.029,5.827,154.68,6.814z M166.208,34.69c-3.724-0.356-5.247-2.691-5.247-2.691s1.4,1.493,3.074,1.911
	c3.73,0.925,5.514,0.16,5.679,0.233C169.879,34.205,169.771,35.026,166.208,34.69z M169.474,30.872
	c-7.329,0-13.276-5.942-13.276-13.274c0-7.337,5.947-13.289,13.276-13.289c7.34,0,13.284,5.952,13.284,13.289
	C182.758,24.929,176.813,30.872,169.474,30.872z M181.719,32.298c-1.131,1.074-4.525,0.842-4.525,0.842s-2.229-0.062,0.101-0.099
	c2.344-0.046,2.579-0.113,3.767-0.743c1.629-0.86,2.29-2.801,2.469-3.444c0.019-0.073,0.036-0.138,0.055-0.215
	c0,0-0.018,0.082-0.055,0.215C183.108,30.519,182.798,31.279,181.719,32.298z M187.086,20.878c-0.099-0.31-0.047-0.76,0.057-1.157
	c0.096-0.403,0.064-1.328-0.085-2.124c-0.153-0.816-1.579-2.531-1.353-2.377c0.226,0.15,0.582,0.584,1.158,1.21
	c0.579,0.63,1.479,2.314,0.853,3.891C187.386,21.163,187.086,20.878,187.086,20.878z"/>
<path fill="#FFFFFF" d="M2.646,75.454"/>
<path fill="#FFFFFF" d="M2.646,74.956"/>
<path fill="#FFFFFF" d="M0,76.885V38.348l1.491,0.191c0.083,0.016,8.604,1.044,15.019-3.09c6.523-4.195,7.324-11.367,7.334-11.439
	l0.119-1.188h1.196h115.64v2.646H26.277c-0.521,2.506-2.346,8.354-8.337,12.21C12.342,41.278,5.6,41.428,2.646,41.284v33.672v0.498
	c2.953-0.145,9.695,0,15.294,3.606c5.991,3.854,7.815,9.704,8.337,12.21h95.78v2.646H23.963l-0.119-1.188
	c-0.01-0.072-0.811-7.244-7.334-11.439c-6.415-4.129-14.936-3.105-15.019-3.09l-1.489,0.19L0,77.367V76.885z"/>
<rect x="92.848" y="15.913" fill="#FFFFFF" width="45.637" height="2.646"/>
<path fill="#FFFFFF" d="M131.871,31.28v-2.646h14.291c-1.909-2.837-4.617-8.381-4.614-17.015H71.061V8.973h73.197l-0.043,1.37
	c-0.414,12.731,5.549,18.596,5.608,18.653l2.377,2.278L131.871,31.28z"/>
<rect x="201.169" y="15.913" fill="#FFFFFF" width="45.636" height="2.646"/>
<path fill="#FFFFFF" d="M207.782,31.28h-20.374l2.424-2.289c0.057-0.052,6.02-5.916,5.605-18.647l-0.046-1.37h73.2v2.646h-70.488
	c0,8.634-2.701,14.178-4.613,17.015h14.292V31.28z"/>
<path fill="#FFFFFF" d="M339.652,77.367l-0.002,1.021l-1.489-0.19c-0.083-0.016-8.604-1.039-15.019,3.09
	c-6.523,4.195-7.324,11.367-7.334,11.439l-0.119,1.188h-98.095V91.27h95.78c0.521-2.506,2.346-8.355,8.337-12.21
	c5.599-3.606,12.341-3.751,15.294-3.606v-0.498V41.284c-2.953,0.145-9.695-0.006-15.294-3.606c-5.991-3.855-7.815-9.704-8.337-12.21
	H198.854v-2.646h115.64h1.196l0.119,1.188c0.01,0.072,0.811,7.244,7.334,11.439c6.415,4.134,14.936,3.105,15.019,3.09l1.491-0.191
	v38.537V77.367z"/>
<g>
</g>
<g>
</g>
<g>
</g>
<g>
</g>
<g>
</g>
<g>
</g>
<g>
</g>
<g>
</g>
<g>
</g>
<g>
</g>
<g>
</g>
<g>
</g>
<g>
</g>
<g>
</g>
<g>
</g>
</svg>
