<?xml version="1.0" encoding="utf-8"?>
<!-- Generator: Adobe Illustrator 16.0.0, SVG Export Plug-In . SVG Version: 6.00 Build 0)  -->
<svg version="1.2" baseProfile="tiny" id="Layer_1" xmlns="http://www.w3.org/2000/svg" xmlns:xlink="http://www.w3.org/1999/xlink"
	 x="0px" y="0px" width="487.282px" height="104.358px" viewBox="0 0 487.282 104.358" xml:space="preserve">
<g>
	<path fill="#FFFFFF" d="M0,27.646v0.989h10.356l-2.275-9.051C8.081,19.584,5.557,24.608,0,27.646z"/>
	<path fill="#FFFFFF" d="M0,28.635v-0.989h10.356l-2.12,9.222C8.236,36.867,5.557,31.664,0,28.635z"/>
	<path fill="#FFFFFF" d="M487.282,28.171v0.999h-10.363l2.277-9.053C479.196,20.117,481.721,25.152,487.282,28.171z"/>
	<path fill="#FFFFFF" d="M487.282,29.17v-0.999h-10.363l2.125,9.223C479.043,37.394,481.721,32.199,487.282,29.17z"/>
	<g>
		<path fill="#FFFFFF" d="M53.964,15.298C50.28,9.097,44.083,4.705,34.747,4.705c-13.257,0-22.667,9.809-22.667,23.217
			c0,13.419,9.409,23.219,22.667,23.219c9.337,0,15.533-4.393,19.218-10.585h0.944v15.218h-0.864l-4.082-4.392
			c-4.314,2.743-9.177,4.392-14.744,4.392c-17.103,0-28.397-12.473-28.397-27.852c0-15.377,11.294-27.851,28.397-27.851
			c5.647,0,10.51,1.577,14.825,4.401l4-4.401h0.864v15.227H53.964z"/>
		<path fill="#FFFFFF" d="M130.933,27.922c0,15.77-12.629,27.852-27.848,27.852c-15.141,0-27.846-12.082-27.846-27.852
			c0-16.081,12.705-27.851,27.846-27.851C118.304,0.071,130.933,11.841,130.933,27.922z M80.728,27.922
			c0,12.313,9.177,23.219,22.358,23.219c13.259,0,22.358-10.906,22.358-23.219c0-12.704-9.1-23.217-22.358-23.217
			C89.905,4.705,80.728,15.298,80.728,27.922z"/>
		<path fill="#FFFFFF" d="M194.556,54.598h-10.201l-22.436-26.676v-1.096h7.217c7.298,0,12.551-3.608,12.551-10.594
			c0-6.903-5.253-10.512-12.551-10.512h-9.648v44.795l6.432,3.217v0.865h-17.488v-0.865l6.116-3.296V5.409l-6.116-3.297V1.257
			h22.274c9.1,0,16.397,5.961,16.397,15.057c0,9.177-8.63,14.514-16.792,14.746l17.027,18.904l7.217,3.769V54.598z"/>
		<path fill="#FFFFFF" d="M239.576,11.368c-2.744-3.999-7.84-6.503-12.945-6.503c-5.803,0-10.041,3.76-10.041,9.096
			c0,6.665,5.024,8.945,14.83,13.258c6.275,2.744,11.216,6.513,11.216,14.122c0,7.367-5.412,14.433-16.318,14.433
			c-5.959,0-11.527-2.201-15.217-5.648v-7.457h0.864c3.137,5.417,8.786,8.4,15.062,8.4c6.981,0,10.354-4.552,10.354-9.186
			c0-6.433-3.685-8.473-15.926-13.72c-6.193-2.673-10.194-6.673-10.194-14.121c0-8.321,7.057-13.971,15.293-13.971
			c6.357,0,11.142,2.2,13.806,4.16v7.137H239.576z"/>
		<path fill="#FFFFFF" d="M313.944,53.732v0.865h-17.022v-0.865l6.038-3.217l-5.646-13.648h-21.34l-5.487,13.569h0.392l6.042,3.296
			v0.865h-17.263v-0.865l6.038-4.311L286.411,0h0.941l20.631,49.492L313.944,53.732z M295.508,32.476l-9.021-21.891l-8.782,21.891
			H295.508z"/>
		<path fill="#FFFFFF" d="M376.398,54.598h-10.196l-22.438-26.676v-1.096h7.217c7.296,0,12.553-3.608,12.553-10.594
			c0-6.903-5.257-10.512-12.553-10.512h-9.648v44.795l6.433,3.217v0.865h-17.496v-0.865l6.123-3.296V5.409l-6.123-3.297V1.257
			h22.284c9.097,0,16.395,5.961,16.395,15.057c0,9.177-8.63,14.514-16.792,14.746l17.027,18.904l7.216,3.769V54.598z"/>
		<path fill="#FFFFFF" d="M403.22,5.409v45.027l6.041,3.296v0.865h-17.103v-0.865l6.121-3.296V5.409l-6.121-3.297V1.257h17.103
			v0.855L403.22,5.409z"/>
		<path fill="#FFFFFF" d="M482.021,27.922c0,15.77-12.632,27.852-27.851,27.852c-15.139,0-27.848-12.082-27.848-27.852
			c0-16.081,12.709-27.851,27.848-27.851C469.389,0.071,482.021,11.841,482.021,27.922z M431.815,27.922
			c0,12.313,9.178,23.219,22.355,23.219c13.257,0,22.357-10.906,22.357-23.219c0-12.704-9.101-23.217-22.357-23.217
			C440.993,4.705,431.815,15.298,431.815,27.922z"/>
	</g>
</g>
<g>
	<path fill="#FFFFFF" d="M191.792,77.002h-12.726v5.043h11.69v4.242h-11.69V92.5h13.293v4.242h-18.204V72.76h17.636V77.002z"/>
	<path fill="#FFFFFF" d="M200.01,89.359c0.034,1.336,0.702,3.875,5.077,3.875c2.372,0,5.011-0.568,5.011-3.105
		c0-1.871-1.804-2.373-4.343-2.973l-2.572-0.602c-3.875-0.902-7.616-1.771-7.616-7.049c0-2.672,1.437-7.381,9.219-7.381
		c7.349,0,9.319,4.811,9.353,7.748h-4.81c-0.134-1.068-0.534-3.607-4.91-3.607c-1.904,0-4.175,0.703-4.175,2.873
		c0,1.871,1.537,2.271,2.539,2.506l5.846,1.436c3.272,0.803,6.279,2.139,6.279,6.447c0,7.215-7.349,7.85-9.453,7.85
		c-8.751,0-10.254-5.045-10.254-8.018H200.01z"/>
	<path fill="#FFFFFF" d="M228.904,96.742h-5.01v-19.74h-7.248V72.76h19.506v4.242h-7.248V96.742z"/>
	<path fill="#FFFFFF" d="M258.332,88.357c0,6.313-3.808,9.02-9.854,9.02c-2.204,0-5.478-0.535-7.615-2.906
		c-1.303-1.471-1.804-3.408-1.87-5.813V72.76h5.11v15.564c0,3.34,1.937,4.811,4.275,4.811c3.44,0,4.843-1.67,4.843-4.576V72.76h5.11
		V88.357z"/>
	<path fill="#FFFFFF" d="M263.243,72.76h10.589c8.083,0,9.753,6.881,9.753,11.424c0,5.143-2.037,12.559-9.953,12.559h-10.389V72.76z
		 M268.153,92.6h4.877c4.075,0,5.444-4.107,5.444-8.049c0-7.082-3.373-7.65-5.511-7.65h-4.811V92.6z"/>
	<path fill="#FFFFFF" d="M291.97,96.742h-5.01V72.76h5.01V96.742z"/>
	<path fill="#FFFFFF" d="M307.102,72.125c3.173,0,11.523,1.369,11.523,12.625c0,11.258-8.351,12.627-11.523,12.627
		s-11.523-1.369-11.523-12.627C295.579,73.494,303.929,72.125,307.102,72.125z M307.102,93.135c2.705,0,6.514-1.67,6.514-8.385
		c0-6.713-3.809-8.383-6.514-8.383s-6.514,1.67-6.514,8.383C300.588,91.465,304.397,93.135,307.102,93.135z"/>
</g>
<g>
</g>
<g>
</g>
<g>
</g>
<g>
</g>
<g>
</g>
<g>
</g>
<g>
</g>
<g>
</g>
<g>
</g>
<g>
</g>
<g>
</g>
<g>
</g>
<g>
</g>
<g>
</g>
<g>
</g>
</svg>
