<?xml version="1.0" encoding="utf-8"?>
<!-- Generator: Adobe Illustrator 16.0.0, SVG Export Plug-In . SVG Version: 6.00 Build 0)  -->
<!DOCTYPE svg PUBLIC "-//W3C//DTD SVG 1.1//EN" "http://www.w3.org/Graphics/SVG/1.1/DTD/svg11.dtd">
<svg version="1.1" id="Layer_1" xmlns="http://www.w3.org/2000/svg" xmlns:xlink="http://www.w3.org/1999/xlink" x="0px" y="0px"
	 width="250.667px" height="104.667px" viewBox="0 0 250.667 104.667" enable-background="new 0 0 250.667 104.667"
	 xml:space="preserve">
<g id="Layer_2">
</g>
<g id="Layer_1_1_">
	<g>
		<g>
			<path fill="#262626" d="M10.424,57.442v0.537h5.625l-1.235-4.92C14.814,53.059,13.438,55.792,10.424,57.442z"/>
		</g>
		<g>
			<path fill="#262626" d="M10.424,57.979v-0.537h5.625l-1.154,5.011C14.896,62.453,13.438,59.626,10.424,57.979z"/>
		</g>
		<g>
			<path fill="#262626" d="M236.49,57.73v0.54h-5.627l1.235-4.918C232.098,53.352,233.473,56.083,236.49,57.73z"/>
		</g>
		<g>
			<path fill="#262626" d="M236.49,58.27v-0.54h-5.627l1.151,5.004C232.014,62.734,233.473,59.914,236.49,58.27z"/>
		</g>
		<g enable-background="new    ">
			<path fill="#262626" d="M39.738,50.725c-2.003-3.367-5.37-5.753-10.441-5.753c-7.202,0-12.316,5.327-12.316,12.614
				c0,7.288,5.114,12.615,12.316,12.615c5.072,0,8.438-2.387,10.441-5.754h0.511v8.269H39.78l-2.216-2.387
				c-2.344,1.491-4.986,2.387-8.012,2.387c-9.291,0-15.428-6.776-15.428-15.13c0-8.353,6.137-15.129,15.428-15.129
				c3.068,0,5.711,0.853,8.055,2.387l2.173-2.387h0.469v8.268H39.738z"/>
		</g>
		<g enable-background="new    ">
			<path fill="#262626" d="M75.923,57.586c0,8.566-6.861,15.13-15.129,15.13c-8.225,0-15.129-6.563-15.129-15.13
				c0-8.736,6.904-15.129,15.129-15.129C69.062,42.458,75.923,48.85,75.923,57.586z M48.648,57.586
				c0,6.691,4.986,12.615,12.146,12.615c7.203,0,12.146-5.924,12.146-12.615c0-6.904-4.944-12.614-12.146-12.614
				C53.634,44.972,48.648,50.725,48.648,57.586z"/>
		</g>
		<g enable-background="new    ">
			<path fill="#262626" d="M104.861,72.077h-5.54l-12.189-14.49V56.99h3.921c3.963,0,6.819-1.96,6.819-5.753
				c0-3.751-2.855-5.711-6.819-5.711h-5.242v24.335l3.495,1.747v0.469h-9.504v-0.469l3.324-1.79V45.355l-3.324-1.79v-0.469h12.104
				c4.944,0,8.907,3.239,8.907,8.183c0,4.986-4.688,7.885-9.12,8.013l9.248,10.271l3.92,2.046V72.077z"/>
		</g>
		<g enable-background="new    ">
			<path fill="#262626" d="M123.693,48.594c-1.492-2.174-4.262-3.537-7.032-3.537c-3.154,0-5.455,2.046-5.455,4.943
				c0,3.623,2.728,4.858,8.055,7.202c3.409,1.492,6.094,3.538,6.094,7.672c0,4.006-2.94,7.842-8.865,7.842
				c-3.239,0-6.265-1.193-8.268-3.069v-4.048h0.469c1.705,2.94,4.773,4.56,8.183,4.56c3.793,0,5.625-2.472,5.625-4.986
				c0-3.494-2.003-4.603-8.651-7.458c-3.367-1.449-5.541-3.622-5.541-7.671c0-4.518,3.836-7.586,8.311-7.586
				c3.452,0,6.052,1.193,7.501,2.259v3.878H123.693z"/>
		</g>
		<g enable-background="new    ">
			<path fill="#262626" d="M158.468,71.608v0.469h-9.248v-0.469l3.281-1.747l-3.068-7.416h-11.592l-2.984,7.373h0.213l3.282,1.79
				v0.469h-9.376v-0.469l3.281-2.344l11.252-26.85h0.511l11.208,26.892L158.468,71.608z M148.453,60.058l-4.901-11.89l-4.772,11.89
				H148.453z"/>
		</g>
		<g enable-background="new    ">
			<path fill="#262626" d="M186.769,72.077h-5.539l-12.189-14.49V56.99h3.921c3.964,0,6.819-1.96,6.819-5.753
				c0-3.751-2.855-5.711-6.819-5.711h-5.241v24.335l3.494,1.747v0.469h-9.504v-0.469l3.324-1.79V45.355l-3.324-1.79v-0.469h12.104
				c4.943,0,8.907,3.239,8.907,8.183c0,4.986-4.688,7.885-9.12,8.013l9.248,10.271l3.92,2.046V72.077z"/>
		</g>
		<g enable-background="new    ">
			<path fill="#262626" d="M195.714,45.355v24.463l3.281,1.79v0.469h-9.29v-0.469l3.324-1.79V45.355l-3.324-1.79v-0.469h9.29v0.469
				L195.714,45.355z"/>
		</g>
		<g enable-background="new    ">
			<path fill="#262626" d="M232.898,57.586c0,8.566-6.861,15.13-15.13,15.13c-8.226,0-15.129-6.563-15.129-15.13
				c0-8.736,6.903-15.129,15.129-15.129C226.037,42.458,232.898,48.85,232.898,57.586z M205.623,57.586
				c0,6.691,4.986,12.615,12.146,12.615c7.202,0,12.146-5.924,12.146-12.615c0-6.904-4.944-12.614-12.146-12.614
				C210.609,44.972,205.623,50.725,205.623,57.586z"/>
		</g>
		<g enable-background="new    ">
			<path fill="#262626" d="M95.75,97.034v1.556c0,0.341-0.114,0.55-0.55,0.55h-8.497c-0.436,0-0.55-0.209-0.55-0.55v-11.38
				c0-0.342,0.114-0.551,0.55-0.551h8.175c0.436,0,0.55,0.209,0.55,0.551v1.574c0,0.341-0.114,0.55-0.55,0.55H89.15v2.067h5.083
				c0.436,0,0.55,0.209,0.55,0.55v1.479c0,0.342-0.114,0.55-0.55,0.55H89.15v2.504h6.05C95.636,96.484,95.75,96.693,95.75,97.034z"
				/>
			<path fill="#262626" d="M107.305,95.441c0,2.693-2.124,3.982-5.045,3.982c-2.371,0-5.102-1.365-5.102-4.021
				c0-0.437,0.114-0.531,0.55-0.531h1.84c0.436,0,0.645,0.057,0.683,0.531c0.019,0.246,0.114,0.493,0.361,0.777
				c0.379,0.455,1.157,0.626,1.858,0.626c1.024,0,1.859-0.228,1.859-1.29c0-1.062-1.688-1.081-3.3-1.593
				c-1.916-0.607-3.68-1.365-3.68-3.774c0-2.466,2.238-3.68,4.609-3.774c2.409,0,5.045,1.101,5.045,3.604
				c0,0.455-0.114,0.531-0.55,0.531h-1.858c-0.36,0-0.417-0.266-0.512-0.512c-0.076-0.19-0.171-0.342-0.398-0.569
				c-0.36-0.342-1.043-0.512-1.612-0.512c-0.625,0-1.669,0.246-1.669,1.1c0,1.157,2.788,1.574,3.547,1.878
				C105.295,92.311,107.305,92.861,107.305,95.441z"/>
			<path fill="#262626" d="M118.519,87.209v1.574c0,0.341-0.114,0.55-0.55,0.55h-2.902v9.256c0,0.436-0.208,0.55-0.55,0.55h-1.877
				c-0.341,0-0.55-0.114-0.55-0.55v-9.256h-2.921c-0.436,0-0.55-0.209-0.55-0.55v-1.574c0-0.342,0.114-0.551,0.55-0.551h8.801
				C118.405,86.659,118.519,86.868,118.519,87.209z"/>
			<path fill="#262626" d="M130.3,87.209v8.117c0,2.978-2.769,4.097-5.026,4.097c-2.257,0-5.007-1.119-5.007-4.097v-8.117
				c0-0.437,0.208-0.551,0.55-0.551h1.878c0.341,0,0.55,0.114,0.55,0.551v7.7c0,1.194,0.778,1.878,2.029,1.878
				c1.252,0,2.049-0.684,2.049-1.878v-7.7c0-0.437,0.208-0.551,0.549-0.551h1.879C130.092,86.659,130.3,86.773,130.3,87.209z"/>
			<path fill="#262626" d="M142.861,90.926v3.945c0,2.978-2.845,4.268-5.102,4.268h-4.248c-0.437,0-0.551-0.209-0.551-0.55v-11.38
				c0-0.342,0.114-0.551,0.551-0.551h4.248C140.016,86.659,142.861,87.968,142.861,90.926z M139.883,91.192
				c0-1.194-0.872-1.896-2.124-1.896h-1.82v7.207h1.82c1.252,0,2.124-0.683,2.124-1.896V91.192z"/>
			<path fill="#262626" d="M151.267,97.09v1.499c0,0.341-0.113,0.55-0.549,0.55h-5.368c-0.437,0-0.55-0.209-0.55-0.55V97.09
				c0-0.341,0.113-0.55,0.55-0.55h1.194v-7.245h-1.156c-0.437,0-0.551-0.209-0.551-0.55v-1.536c0-0.342,0.114-0.551,0.551-0.551
				h5.272c0.437,0,0.55,0.209,0.55,0.551v1.536c0,0.341-0.113,0.55-0.55,0.55h-1.138v7.245h1.195
				C151.154,96.541,151.267,96.75,151.267,97.09z"/>
			<path fill="#262626" d="M163.523,95.137c0,2.997-2.846,4.286-5.102,4.286c-2.258,0-5.064-1.289-5.064-4.286v-4.477
				c0-2.996,2.807-4.286,5.064-4.286c2.256,0,5.102,1.29,5.102,4.286V95.137z M160.544,90.926c0-1.214-0.872-1.915-2.123-1.915
				c-1.233,0-2.105,0.701-2.105,1.915v3.945c0,1.214,0.872,1.916,2.105,1.916c1.251,0,2.123-0.702,2.123-1.916V90.926z"/>
		</g>
		<g>
			<g>
				<g opacity="0.9">
					<g>
						<polygon fill="#262626" points="124.478,13.15 126.816,17.877 132.039,18.643 128.259,22.322 129.15,27.528 124.478,25.071
							119.805,27.528 120.698,22.322 116.919,18.643 122.142,17.877 						"/>
					</g>
				</g>
			</g>
			<g>
				<path fill="#262626" d="M140.718,16.307c-0.307-1.547,1.557-6.045-3.605-7.391c-2.574-0.68-2.855-1.71-4.281-2.964
					c-1.826-1.601-7.678-3.861-12.042-1.601c-4.364,2.261-4.903,2.055-6.891,2.275c-1.987,0.221-4.046,0.264-5.979,3.415
					c-1.935,3.151-0.386,10.33-0.386,10.33c0.112,2.481-0.662,3.315-0.584,5.963c0.077,2.653,1.47,4.311,2.792,4.915
					c1.329,0.607,2.487,1,5.305,4.196c2.816,3.208,5.415,3.484,8.396,3.313c2.979-0.162,4.748-1.929,7.565-1.653
					c2.82,0.274,5.693,0.217,7.016-1.985c1.327-2.208,1.284-5.14,2.17-6.687c0.883-1.551,3.639-2.97,3.658-5.398
					C143.863,20.646,141.324,19.348,140.718,16.307z M121.645,4.75c0.617-0.283,3.307-1.57,6.834-0.455
					c0.944,0.296,1.291,0.689,0.879,0.521c-0.854-0.34-3.454-0.546-3.781-0.546c-0.871,0-2.998,0.332-3.98,0.667
					c0,0-0.94,0.288-0.996,0.316C120.601,5.252,120.804,5.142,121.645,4.75z M109.561,10.286c-1.37,0.997-1.743,2.865-1.743,2.865
					s-0.705-0.297,1.119-3.195c1.822-2.897,4.555-2.773,5.177-2.61c0.622,0.167,0.622,0.58-0.952,0.958
					C111.588,8.672,110.922,9.291,109.561,10.286z M121.212,38.458c-3.763-0.354-5.303-2.716-5.303-2.716s1.412,1.504,3.106,1.93
					c3.771,0.934,5.576,0.162,5.739,0.234C124.923,37.973,124.812,38.796,121.212,38.458z M124.512,34.606
					c-7.411,0-13.422-6.011-13.422-13.424c0-7.415,6.011-13.43,13.422-13.43c7.419,0,13.423,6.015,13.423,13.43
					C137.936,28.595,131.931,34.606,124.512,34.606z M136.887,36.047c-1.146,1.078-4.572,0.844-4.572,0.844
					s-2.255-0.058,0.103-0.096c2.362-0.049,2.603-0.111,3.805-0.748c1.631-0.866,2.301-2.792,2.49-3.464
					c0.021-0.08,0.041-0.152,0.062-0.237c0,0-0.019,0.089-0.062,0.237C138.287,34.256,137.973,35.021,136.887,36.047z
					 M142.313,24.501c-0.099-0.307-0.048-0.767,0.056-1.17c0.098-0.407,0.067-1.34-0.089-2.149
					c-0.153-0.819-1.592-2.553-1.362-2.399c0.228,0.153,0.586,0.584,1.168,1.227c0.588,0.631,1.492,2.336,0.865,3.927
					C142.615,24.789,142.313,24.501,142.313,24.501z"/>
			</g>
		</g>
		<g>
			<path fill="#262626" d="M30.845,78.74c-1.433,0-2.28,0.234-2.28,0.234l-1.679,0.729l-0.262,0.104l-1.675,0.728
				c0,0-0.35,0.23,1.209,0.23c1.434,0,2.278-0.23,2.278-0.23l1.675-0.728l0.263-0.104l1.677-0.729
				C32.053,78.974,32.398,78.74,30.845,78.74z"/>
		</g>
		<g>
			<path fill="#262626" d="M35.114,78.74c-1.435,0-2.28,0.234-2.28,0.234l-1.677,0.729L30.9,79.807l-1.676,0.728
				c0,0-0.354,0.23,1.204,0.23c1.436,0,2.283-0.23,2.283-0.23l1.677-0.728l0.255-0.104l1.676-0.729
				C36.319,78.974,36.669,78.74,35.114,78.74z"/>
		</g>
		<g>
			<path fill="#262626" d="M26.499,78.74c-1.438,0-2.282,0.234-2.282,0.234l-1.675,0.729l-0.26,0.104l-1.678,0.728
				c0,0-0.349,0.23,1.21,0.23c1.433,0,2.28-0.23,2.28-0.23l1.675-0.728l0.257-0.104l1.682-0.729
				C27.708,78.974,28.057,78.74,26.499,78.74z"/>
		</g>
		<g>
			<path fill="#262626" d="M17.817,78.74c-1.435,0-2.283,0.234-2.283,0.234l-1.675,0.729l-0.261,0.104l-1.676,0.728
				c0,0-0.352,0.23,1.204,0.23c1.436,0,2.285-0.23,2.285-0.23l1.673-0.728l0.262-0.104l1.677-0.729
				C19.023,78.974,19.374,78.74,17.817,78.74z"/>
		</g>
		<g>
			<path fill="#262626" d="M22.153,78.74c-1.438,0-2.282,0.234-2.282,0.234l-1.673,0.729l-0.263,0.104l-1.674,0.728
				c0,0-0.351,0.23,1.208,0.23c1.435,0,2.279-0.23,2.279-0.23l1.677-0.728l0.258-0.104l1.68-0.729
				C23.361,78.974,23.709,78.74,22.153,78.74z"/>
		</g>
		<g>
			<path fill="#262626" d="M13.581,78.74c-1.435,0-2.28,0.234-2.28,0.234l-1.678,0.729l-0.26,0.104l-1.679,0.728
				c0,0-0.348,0.23,1.208,0.23c1.438,0,2.283-0.23,2.283-0.23l1.676-0.728l0.259-0.104l1.678-0.729
				C14.789,78.974,15.138,78.74,13.581,78.74z"/>
		</g>
		<g>
			<g>
				<path fill="#262626" d="M56.603,78.74c-1.437,0-2.281,0.234-2.281,0.234l-1.677,0.729l-0.261,0.104l-1.676,0.728
					c0,0-0.351,0.23,1.211,0.23c1.429,0,2.28-0.23,2.28-0.23l1.674-0.728l0.257-0.104l1.681-0.729
					C57.812,78.974,58.162,78.74,56.603,78.74z"/>
			</g>
		</g>
		<g>
			<g>
				<path fill="#262626" d="M60.876,78.74c-1.441,0-2.286,0.234-2.286,0.234l-1.672,0.729l-0.261,0.104l-1.678,0.728
					c0,0-0.351,0.23,1.204,0.23c1.437,0,2.283-0.23,2.283-0.23l1.677-0.728l0.261-0.104l1.676-0.729
					C62.081,78.974,62.432,78.74,60.876,78.74z"/>
			</g>
		</g>
		<g>
			<path fill="#262626" d="M52.256,78.74c-1.436,0-2.279,0.234-2.279,0.234l-1.674,0.729l-0.264,0.104l-1.673,0.728
				c0,0-0.352,0.23,1.208,0.23c1.433,0,2.277-0.23,2.277-0.23l1.676-0.728l0.261-0.104l1.677-0.729
				C53.464,78.974,53.815,78.74,52.256,78.74z"/>
		</g>
		<g>
			<path fill="#262626" d="M43.574,78.74c-1.434,0-2.281,0.234-2.281,0.234l-1.676,0.729l-0.262,0.104l-1.674,0.728
				c0,0-0.354,0.23,1.206,0.23c1.437,0,2.282-0.23,2.282-0.23l1.675-0.728l0.26-0.104l1.673-0.729
				C44.779,78.974,45.135,78.74,43.574,78.74z"/>
		</g>
		<g>
			<path fill="#262626" d="M47.912,78.74c-1.432,0-2.281,0.234-2.281,0.234l-1.674,0.729l-0.26,0.104l-1.679,0.728
				c0,0-0.352,0.23,1.207,0.23c1.438,0,2.28-0.23,2.28-0.23l1.677-0.728l0.262-0.104l1.676-0.729
				C49.121,78.974,49.472,78.74,47.912,78.74z"/>
		</g>
		<g>
			<path fill="#262626" d="M39.341,78.74c-1.438,0-2.282,0.234-2.282,0.234l-1.674,0.729l-0.265,0.104l-1.674,0.728
				c0,0-0.352,0.23,1.207,0.23c1.435,0,2.283-0.23,2.283-0.23l1.67-0.728l0.263-0.104l1.68-0.729
				C40.55,78.974,40.901,78.74,39.341,78.74z"/>
		</g>
		<g>
			<g>
				<path fill="#262626" d="M82.495,78.74c-1.436,0-2.28,0.234-2.28,0.234l-1.679,0.729l-0.257,0.104l-1.674,0.728
					c0,0-0.355,0.23,1.206,0.23c1.436,0,2.281-0.23,2.281-0.23l1.677-0.728l0.261-0.104l1.676-0.729
					C83.705,78.974,84.056,78.74,82.495,78.74z"/>
			</g>
		</g>
		<g>
			<g>
				<path fill="#262626" d="M86.769,78.74c-1.436,0-2.281,0.234-2.281,0.234l-1.676,0.729l-0.262,0.104l-1.674,0.728
					c0,0-0.351,0.23,1.207,0.23c1.434,0,2.279-0.23,2.279-0.23l1.674-0.728l0.264-0.104l1.679-0.729
					C87.979,78.974,88.324,78.74,86.769,78.74z"/>
			</g>
		</g>
		<g>
			<g>
				<path fill="#262626" d="M78.151,78.74c-1.436,0-2.281,0.234-2.281,0.234l-1.68,0.729l-0.257,0.104l-1.674,0.728
					c0,0-0.355,0.23,1.207,0.23c1.432,0,2.282-0.23,2.282-0.23l1.676-0.728l0.26-0.104l1.677-0.729
					C79.361,78.974,79.712,78.74,78.151,78.74z"/>
			</g>
		</g>
		<g>
			<g>
				<path fill="#262626" d="M69.47,78.74c-1.439,0-2.285,0.234-2.285,0.234l-1.674,0.729l-0.257,0.104l-1.68,0.728
					c0,0-0.351,0.23,1.21,0.23c1.432,0,2.279-0.23,2.279-0.23l1.677-0.728l0.257-0.104l1.679-0.729
					C70.676,78.974,71.029,78.74,69.47,78.74z"/>
			</g>
		</g>
		<g>
			<g>
				<path fill="#262626" d="M73.809,78.74c-1.438,0-2.283,0.234-2.283,0.234l-1.674,0.729l-0.264,0.104l-1.673,0.728
					c0,0-0.354,0.23,1.208,0.23c1.433,0,2.279-0.23,2.279-0.23l1.673-0.728l0.262-0.104l1.677-0.729
					C75.014,78.974,75.37,78.74,73.809,78.74z"/>
			</g>
		</g>
		<g>
			<g>
				<path fill="#262626" d="M65.236,78.74c-1.436,0-2.283,0.234-2.283,0.234l-1.678,0.729l-0.257,0.104l-1.677,0.728
					c0,0-0.354,0.23,1.207,0.23c1.439,0,2.282-0.23,2.282-0.23l1.676-0.728l0.261-0.104l1.676-0.729
					C66.441,78.974,66.792,78.74,65.236,78.74z"/>
			</g>
		</g>
		<g>
			<g>
				<path fill="#262626" d="M108.258,78.74c-1.439,0-2.283,0.234-2.283,0.234l-1.679,0.729l-0.258,0.104l-1.678,0.728
					c0,0-0.351,0.23,1.21,0.23c1.433,0,2.283-0.23,2.283-0.23l1.674-0.728l0.262-0.104l1.674-0.729
					C109.463,78.974,109.816,78.74,108.258,78.74z"/>
			</g>
		</g>
		<g>
			<g>
				<path fill="#262626" d="M112.528,78.74c-1.438,0-2.281,0.234-2.281,0.234l-1.676,0.729l-0.26,0.104l-1.68,0.728
					c0,0-0.35,0.23,1.21,0.23c1.436,0,2.28-0.23,2.28-0.23l1.675-0.728l0.259-0.104l1.68-0.729
					C113.735,78.974,114.086,78.74,112.528,78.74z"/>
			</g>
		</g>
		<g>
			<g>
				<path fill="#262626" d="M103.911,78.74c-1.438,0-2.282,0.234-2.282,0.234l-1.675,0.729l-0.259,0.104l-1.678,0.728
					c0,0-0.351,0.23,1.211,0.23c1.433,0,2.28-0.23,2.28-0.23l1.674-0.728l0.261-0.104l1.675-0.729
					C105.117,78.974,105.473,78.74,103.911,78.74z"/>
			</g>
		</g>
		<g>
			<g>
				<path fill="#262626" d="M95.227,78.74c-1.432,0-2.278,0.234-2.278,0.234l-1.676,0.729l-0.261,0.104l-1.681,0.728
					c0,0-0.35,0.23,1.212,0.23c1.433,0,2.28-0.23,2.28-0.23l1.672-0.728l0.263-0.104l1.674-0.729
					C96.433,78.974,96.787,78.74,95.227,78.74z"/>
			</g>
		</g>
		<g>
			<g>
				<path fill="#262626" d="M99.564,78.74c-1.433,0-2.278,0.234-2.278,0.234l-1.677,0.729l-0.258,0.104l-1.68,0.728
					c0,0-0.353,0.23,1.207,0.23c1.439,0,2.285-0.23,2.285-0.23l1.673-0.728l0.258-0.104l1.679-0.729
					C100.774,78.974,101.126,78.74,99.564,78.74z"/>
			</g>
		</g>
		<g>
			<g>
				<path fill="#262626" d="M90.993,78.74c-1.437,0-2.281,0.234-2.281,0.234l-1.676,0.729l-0.259,0.104l-1.68,0.728
					c0,0-0.351,0.23,1.206,0.23c1.438,0,2.284-0.23,2.284-0.23l1.678-0.728l0.259-0.104l1.676-0.729
					C92.201,78.974,92.551,78.74,90.993,78.74z"/>
			</g>
		</g>
		<g>
			<g>
				<path fill="#262626" d="M134.022,78.74c-1.437,0-2.28,0.234-2.28,0.234l-1.675,0.729l-0.262,0.104l-1.679,0.728
					c0,0-0.35,0.23,1.209,0.23c1.436,0,2.279-0.23,2.279-0.23l1.678-0.728l0.262-0.104l1.674-0.729
					C135.23,78.974,135.583,78.74,134.022,78.74z"/>
			</g>
		</g>
		<g>
			<g>
				<path fill="#262626" d="M138.294,78.74c-1.437,0-2.279,0.234-2.279,0.234l-1.676,0.729l-0.264,0.104l-1.676,0.728
					c0,0-0.352,0.23,1.206,0.23c1.437,0,2.284-0.23,2.284-0.23l1.672-0.728l0.268-0.104l1.67-0.729
					C139.5,78.974,139.852,78.74,138.294,78.74z"/>
			</g>
		</g>
		<g>
			<g>
				<path fill="#262626" d="M129.68,78.74c-1.438,0-2.284,0.234-2.284,0.234l-1.674,0.729l-0.261,0.104l-1.679,0.728
					c0,0-0.35,0.23,1.21,0.23c1.431,0,2.279-0.23,2.279-0.23l1.678-0.728l0.258-0.104l1.676-0.729
					C130.884,78.974,131.24,78.74,129.68,78.74z"/>
			</g>
		</g>
		<g>
			<g>
				<path fill="#262626" d="M120.995,78.74c-1.434,0-2.284,0.234-2.284,0.234l-1.672,0.729l-0.263,0.104l-1.67,0.728
					c0,0-0.355,0.23,1.204,0.23c1.436,0,2.281-0.23,2.281-0.23l1.674-0.728l0.264-0.104l1.676-0.729
					C122.204,78.974,122.552,78.74,120.995,78.74z"/>
			</g>
		</g>
		<g>
			<g>
				<path fill="#262626" d="M125.33,78.74c-1.432,0-2.276,0.234-2.276,0.234l-1.675,0.729l-0.263,0.104l-1.68,0.728
					c0,0-0.35,0.23,1.208,0.23c1.44,0,2.283-0.23,2.283-0.23l1.675-0.728l0.263-0.104l1.673-0.729
					C126.541,78.974,126.892,78.74,125.33,78.74z"/>
			</g>
		</g>
		<g>
			<g>
				<path fill="#262626" d="M116.761,78.74c-1.436,0-2.279,0.234-2.279,0.234l-1.677,0.729l-0.262,0.104l-1.678,0.728
					c0,0-0.351,0.23,1.21,0.23c1.438,0,2.277-0.23,2.277-0.23l1.677-0.728l0.264-0.104l1.674-0.729
					C117.968,78.974,118.318,78.74,116.761,78.74z"/>
			</g>
		</g>
		<g>
			<g>
				<path fill="#262626" d="M159.78,78.74c-1.432,0-2.276,0.234-2.276,0.234l-1.676,0.729l-0.263,0.104l-1.681,0.728
					c0,0-0.344,0.23,1.212,0.23c1.437,0,2.28-0.23,2.28-0.23l1.681-0.728l0.259-0.104l1.674-0.729
					C160.99,78.974,161.341,78.74,159.78,78.74z"/>
			</g>
		</g>
		<g>
			<g>
				<path fill="#262626" d="M164.052,78.74c-1.436,0-2.28,0.234-2.28,0.234l-1.674,0.729l-0.263,0.104l-1.672,0.728
					c0,0-0.356,0.23,1.205,0.23c1.438,0,2.279-0.23,2.279-0.23l1.678-0.728l0.262-0.104l1.672-0.729
					C165.259,78.974,165.608,78.74,164.052,78.74z"/>
			</g>
		</g>
		<g>
			<g>
				<path fill="#262626" d="M155.439,78.74c-1.439,0-2.283,0.234-2.283,0.234l-1.677,0.729l-0.263,0.104l-1.676,0.728
					c0,0-0.352,0.23,1.209,0.23c1.435,0,2.281-0.23,2.281-0.23l1.678-0.728l0.263-0.104l1.672-0.729
					C156.643,78.974,156.998,78.74,155.439,78.74z"/>
			</g>
		</g>
		<g>
			<g>
				<path fill="#262626" d="M146.755,78.74c-1.435,0-2.284,0.234-2.284,0.234l-1.675,0.729l-0.264,0.104l-1.671,0.728
					c0,0-0.354,0.23,1.207,0.23c1.437,0,2.28-0.23,2.28-0.23l1.676-0.728l0.26-0.104l1.678-0.729
					C147.962,78.974,148.314,78.74,146.755,78.74z"/>
			</g>
		</g>
		<g>
			<g>
				<path fill="#262626" d="M151.087,78.74c-1.433,0-2.277,0.234-2.277,0.234l-1.674,0.729l-0.264,0.104l-1.674,0.728
					c0,0-0.353,0.23,1.209,0.23c1.432,0,2.277-0.23,2.277-0.23l1.68-0.728l0.258-0.104l1.676-0.729
					C152.298,78.974,152.654,78.74,151.087,78.74z"/>
			</g>
		</g>
		<g>
			<g>
				<path fill="#262626" d="M142.523,78.74c-1.436,0-2.283,0.234-2.283,0.234l-1.677,0.729l-0.259,0.104l-1.676,0.728
					c0,0-0.353,0.23,1.205,0.23c1.438,0,2.281-0.23,2.281-0.23l1.678-0.728l0.258-0.104l1.672-0.729
					C143.721,78.974,144.08,78.74,142.523,78.74z"/>
			</g>
		</g>
		<g>
			<g>
				<path fill="#262626" d="M185.675,78.74c-1.438,0-2.279,0.234-2.279,0.234l-1.676,0.729l-0.264,0.104l-1.672,0.728
					c0,0-0.354,0.23,1.207,0.23c1.436,0,2.278-0.23,2.278-0.23l1.676-0.728l0.261-0.104l1.676-0.729
					C186.882,78.974,187.238,78.74,185.675,78.74z"/>
			</g>
		</g>
		<g>
			<g>
				<path fill="#262626" d="M189.949,78.74c-1.438,0-2.279,0.234-2.279,0.234l-1.678,0.729l-0.263,0.104l-1.677,0.728
					c0,0-0.354,0.23,1.207,0.23c1.437,0,2.279-0.23,2.279-0.23l1.68-0.728l0.264-0.104l1.674-0.729
					C191.156,78.974,191.503,78.74,189.949,78.74z"/>
			</g>
		</g>
		<g>
			<g>
				<path fill="#262626" d="M181.333,78.74c-1.438,0-2.281,0.234-2.281,0.234l-1.676,0.729l-0.265,0.104l-1.673,0.728
					c0,0-0.355,0.23,1.205,0.23c1.438,0,2.285-0.23,2.285-0.23l1.676-0.728l0.26-0.104l1.67-0.729
					C182.535,78.974,182.893,78.74,181.333,78.74z"/>
			</g>
		</g>
		<g>
			<g>
				<path fill="#262626" d="M172.649,78.74c-1.435,0-2.278,0.234-2.278,0.234l-1.684,0.729l-0.255,0.104l-1.675,0.728
					c0,0-0.354,0.23,1.205,0.23c1.435,0,2.281-0.23,2.281-0.23l1.676-0.728l0.261-0.104l1.674-0.729
					C173.854,78.974,174.21,78.74,172.649,78.74z"/>
			</g>
		</g>
		<g>
			<g>
				<path fill="#262626" d="M176.99,78.74c-1.439,0-2.281,0.234-2.281,0.234l-1.676,0.729l-0.264,0.104l-1.671,0.728
					c0,0-0.353,0.23,1.204,0.23c1.435,0,2.279-0.23,2.279-0.23l1.674-0.728l0.264-0.104l1.677-0.729
					C178.195,78.974,178.546,78.74,176.99,78.74z"/>
			</g>
		</g>
		<g>
			<g>
				<path fill="#262626" d="M168.412,78.74c-1.433,0-2.277,0.234-2.277,0.234l-1.674,0.729l-0.265,0.104l-1.675,0.728
					c0,0-0.354,0.23,1.208,0.23c1.435,0,2.28-0.23,2.28-0.23l1.678-0.728l0.259-0.104l1.677-0.729
					C169.623,78.974,169.977,78.74,168.412,78.74z"/>
			</g>
		</g>
		<g>
			<g>
				<path fill="#262626" d="M211.438,78.74c-1.437,0-2.28,0.234-2.28,0.234l-1.681,0.729l-0.259,0.104l-1.678,0.728
					c0,0-0.349,0.23,1.207,0.23c1.438,0,2.279-0.23,2.279-0.23l1.684-0.728l0.258-0.104l1.672-0.729
					C212.64,78.974,212.994,78.74,211.438,78.74z"/>
			</g>
		</g>
		<g>
			<g>
				<path fill="#262626" d="M215.707,78.74c-1.434,0-2.277,0.234-2.277,0.234l-1.68,0.729l-0.258,0.104l-1.678,0.728
					c0,0-0.35,0.23,1.207,0.23c1.436,0,2.279-0.23,2.279-0.23l1.677-0.728l0.261-0.104l1.68-0.729
					C216.917,78.974,217.263,78.74,215.707,78.74z"/>
			</g>
		</g>
		<g>
			<g>
				<path fill="#262626" d="M207.089,78.74c-1.437,0-2.28,0.234-2.28,0.234l-1.677,0.729l-0.258,0.104l-1.678,0.728
					c0,0-0.352,0.23,1.208,0.23c1.433,0,2.279-0.23,2.279-0.23l1.676-0.728l0.259-0.104l1.676-0.729
					C208.294,78.974,208.647,78.74,207.089,78.74z"/>
			</g>
		</g>
		<g>
			<g>
				<path fill="#262626" d="M198.41,78.74c-1.438,0-2.281,0.234-2.281,0.234l-1.678,0.729l-0.264,0.104l-1.674,0.728
					c0,0-0.354,0.23,1.21,0.23c1.431,0,2.278-0.23,2.278-0.23l1.677-0.728l0.26-0.104l1.677-0.729
					C199.615,78.974,199.968,78.74,198.41,78.74z"/>
			</g>
		</g>
		<g>
			<g>
				<path fill="#262626" d="M202.744,78.74c-1.434,0-2.277,0.234-2.277,0.234l-1.676,0.729l-0.265,0.104l-1.673,0.728
					c0,0-0.354,0.23,1.204,0.23c1.437,0,2.284-0.23,2.284-0.23l1.676-0.728l0.258-0.104l1.678-0.729
					C203.953,78.974,204.306,78.74,202.744,78.74z"/>
			</g>
		</g>
		<g>
			<g>
				<path fill="#262626" d="M233.082,78.74c-1.433,0-2.281,0.234-2.281,0.234l-1.676,0.729l-0.262,0.104l-1.673,0.728
					c0,0-0.354,0.23,1.204,0.23c1.439,0,2.283-0.23,2.283-0.23l1.675-0.728l0.265-0.104l1.672-0.729
					C234.289,78.974,234.642,78.74,233.082,78.74z"/>
			</g>
		</g>
		<g>
			<g>
				<path fill="#262626" d="M237.353,78.74c-1.438,0-2.275,0.234-2.275,0.234l-1.68,0.729l-0.266,0.104l-1.676,0.728
					c0,0-0.351,0.23,1.207,0.23c1.441,0,2.285-0.23,2.285-0.23l1.676-0.728l0.264-0.104l1.674-0.729
					C238.562,78.974,238.914,78.74,237.353,78.74z"/>
			</g>
		</g>
		<g>
			<g>
				<path fill="#262626" d="M240.097,78.74c-0.143,0.018-0.844,0.234-0.844,0.234l-1.676,0.729l-0.264,0.104l-1.674,0.728
					c0,0-0.352,0.23,1.207,0.23c3.421,0.134,4.727-0.088,4.727-0.088l-0.012-1.703C241.563,78.974,241.578,78.591,240.097,78.74z"/>
			</g>
		</g>
		<g>
			<g>
				<path fill="#262626" d="M228.736,78.74c-1.436,0-2.279,0.234-2.279,0.234l-1.676,0.729l-0.263,0.104l-1.675,0.728
					c0,0-0.354,0.23,1.207,0.23c1.436,0,2.281-0.23,2.281-0.23l1.674-0.728l0.265-0.104l1.674-0.729
					C229.944,78.974,230.294,78.74,228.736,78.74z"/>
			</g>
		</g>
		<g>
			<g>
				<path fill="#262626" d="M220.052,78.74c-1.434,0-2.279,0.234-2.279,0.234l-1.675,0.729l-0.261,0.104l-1.678,0.728
					c0,0-0.35,0.23,1.209,0.23c1.438,0,2.278-0.23,2.278-0.23l1.681-0.728l0.256-0.104l1.678-0.729
					C221.261,78.974,221.617,78.74,220.052,78.74z"/>
			</g>
		</g>
		<g>
			<g>
				<path fill="#262626" d="M224.394,78.74c-1.438,0-2.279,0.234-2.279,0.234l-1.678,0.729l-0.264,0.104l-1.674,0.728
					c0,0-0.353,0.23,1.207,0.23c1.432,0,2.281-0.23,2.281-0.23l1.678-0.728l0.262-0.104l1.673-0.729
					C225.6,78.974,225.953,78.74,224.394,78.74z"/>
			</g>
		</g>
		<g>
			<g>
				<path fill="#262626" d="M194.171,78.74c-1.432,0-2.273,0.234-2.273,0.234l-1.682,0.729l-0.26,0.104l-1.679,0.728
					c0,0-0.353,0.23,1.209,0.23c1.437,0,2.281-0.23,2.281-0.23l1.675-0.728l0.26-0.104l1.678-0.729
					C195.38,78.974,195.733,78.74,194.171,78.74z"/>
			</g>
		</g>
		<g>
			<path fill="#262626" stroke="#FFFFFF" stroke-width="0.25" stroke-miterlimit="10" d="M240.087,79.328"/>
		</g>
		<g>
			<path fill="#262626" d="M6.146,80.773c0.149-0.014,0.843-0.229,0.843-0.229l1.68-0.729l0.259-0.105l1.678-0.732
				c0,0,0.348-0.229-1.212-0.229c-3.419-0.135-4.725,0.086-4.725,0.086l0.016,1.709C4.684,80.544,4.665,80.923,6.146,80.773z"/>
		</g>
	</g>
</g>
</svg>
