<?xml version="1.0" encoding="utf-8"?>
<!-- Generator: Adobe Illustrator 16.0.0, SVG Export Plug-In . SVG Version: 6.00 Build 0)  -->
<!DOCTYPE svg PUBLIC "-//W3C//DTD SVG 1.0//EN" "http://www.w3.org/TR/2001/REC-SVG-20010904/DTD/svg10.dtd">
<svg version="1.0" id="Layer_1" xmlns="http://www.w3.org/2000/svg" xmlns:xlink="http://www.w3.org/1999/xlink" x="0px" y="0px"
	 width="282.602px" height="61.646px" viewBox="0 0 282.602 61.646" enable-background="new 0 0 282.602 61.646"
	 xml:space="preserve">
<path fill="#FFFFFF" d="M0,16.033v0.573h6.006l-1.319-5.249C4.687,11.357,3.223,14.271,0,16.033z"/>
<path fill="#FFFFFF" d="M0,16.606v-0.573h6.006l-1.229,5.348C4.776,21.381,3.223,18.363,0,16.606z"/>
<path fill="#FFFFFF" d="M282.602,16.338v0.579h-6.01l1.32-5.25C277.912,11.667,279.377,14.587,282.602,16.338z"/>
<path fill="#FFFFFF" d="M282.602,16.917v-0.579h-6.01l1.232,5.349C277.824,21.687,279.377,18.674,282.602,16.917z"/>
<g>
	<path fill="#FFFFFF" d="M31.297,8.872c-2.137-3.597-5.73-6.144-11.146-6.144c-7.688,0-13.146,5.688-13.146,13.465
		c0,7.782,5.457,13.466,13.146,13.466c5.415,0,9.009-2.548,11.146-6.139h0.548v8.825h-0.501l-2.367-2.547
		c-2.502,1.591-5.322,2.547-8.551,2.547c-9.919,0-16.469-7.233-16.469-16.152c0-8.918,6.55-16.152,16.469-16.152
		c3.275,0,6.096,0.915,8.598,2.553l2.32-2.553h0.501v8.831H31.297z"/>
	<path fill="#FFFFFF" d="M75.936,16.193c0,9.146-7.324,16.152-16.15,16.152c-8.781,0-16.149-7.007-16.149-16.152
		c0-9.326,7.368-16.152,16.149-16.152C68.611,0.041,75.936,6.867,75.936,16.193z M46.818,16.193c0,7.141,5.322,13.466,12.967,13.466
		c7.689,0,12.967-6.325,12.967-13.466c0-7.368-5.277-13.465-12.967-13.465C52.141,2.729,46.818,8.872,46.818,16.193z"/>
	<path fill="#FFFFFF" d="M112.834,31.664h-5.916L93.906,16.193v-0.636h4.186c4.232,0,7.279-2.093,7.279-6.144
		c0-4.004-3.047-6.097-7.279-6.097h-5.596v25.979l3.73,1.865v0.502H86.084v-0.502l3.547-1.911V3.137l-3.547-1.912V0.729h12.918
		c5.277,0,9.51,3.457,9.51,8.732c0,5.322-5.005,8.417-9.738,8.552l9.875,10.964l4.186,2.186V31.664z"/>
	<path fill="#FFFFFF" d="M138.943,6.593c-1.592-2.319-4.547-3.771-7.508-3.771c-3.365,0-5.823,2.181-5.823,5.275
		c0,3.865,2.914,5.188,8.601,7.688c3.64,1.592,6.505,3.777,6.505,8.19c0,4.272-3.139,8.37-9.464,8.37
		c-3.456,0-6.686-1.276-8.825-3.275v-4.325h0.501c1.819,3.142,5.096,4.872,8.735,4.872c4.049,0,6.005-2.64,6.005-5.327
		c0-3.73-2.137-4.914-9.236-7.957c-3.592-1.55-5.912-3.87-5.912-8.189c0-4.826,4.093-8.103,8.869-8.103
		c3.688,0,6.462,1.276,8.007,2.413v4.139H138.943z"/>
	<path fill="#FFFFFF" d="M182.073,31.162v0.502h-9.872v-0.502l3.502-1.865l-3.274-7.916h-12.376l-3.183,7.87h0.228l3.504,1.911
		v0.502H150.59v-0.502l3.502-2.5L166.105,0h0.546l11.965,28.703L182.073,31.162z M171.382,18.834L166.15,6.139l-5.094,12.695
		H171.382z"/>
	<path fill="#FFFFFF" d="M218.294,31.664h-5.913l-13.014-15.471v-0.636h4.186c4.231,0,7.28-2.093,7.28-6.144
		c0-4.004-3.049-6.097-7.28-6.097h-5.596v25.979l3.73,1.865v0.502h-10.146v-0.502l3.551-1.911V3.137l-3.551-1.912V0.729h12.924
		c5.275,0,9.508,3.457,9.508,8.732c0,5.322-5.005,8.417-9.738,8.552l9.875,10.964l4.185,2.186V31.664z"/>
	<path fill="#FFFFFF" d="M233.85,3.137v26.114l3.504,1.911v0.502h-9.919v-0.502l3.55-1.911V3.137l-3.55-1.912V0.729h9.919v0.496
		L233.85,3.137z"/>
	<path fill="#FFFFFF" d="M279.551,16.193c0,9.146-7.326,16.152-16.152,16.152c-8.779,0-16.15-7.007-16.15-16.152
		c0-9.326,7.371-16.152,16.15-16.152C272.225,0.041,279.551,6.867,279.551,16.193z M250.434,16.193
		c0,7.141,5.322,13.466,12.965,13.466c7.688,0,12.967-6.325,12.967-13.466c0-7.368-5.278-13.465-12.967-13.465
		C255.756,2.729,250.434,8.872,250.434,16.193z"/>
</g>
<g>
	<g>
		<path fill="#FFFFFF" d="M110.77,53.954v1.59c0,0.349-0.116,0.562-0.562,0.562h-8.682c-0.446,0-0.563-0.213-0.563-0.562V43.916
			c0-0.349,0.116-0.562,0.563-0.562h8.353c0.445,0,0.562,0.213,0.562,0.562v1.608c0,0.349-0.116,0.563-0.562,0.563h-5.853v2.112
			h5.193c0.445,0,0.562,0.213,0.562,0.562v1.512c0,0.349-0.116,0.562-0.562,0.562h-5.193v2.559h6.182
			C110.653,53.393,110.77,53.605,110.77,53.954z"/>
		<path fill="#FFFFFF" d="M122.567,52.326c0,2.752-2.17,4.07-5.154,4.07c-2.423,0-5.213-1.396-5.213-4.108
			c0-0.446,0.116-0.543,0.562-0.543h1.88c0.446,0,0.659,0.059,0.697,0.543c0.02,0.252,0.117,0.504,0.368,0.794
			c0.388,0.466,1.183,0.64,1.899,0.64c1.047,0,1.899-0.232,1.899-1.317s-1.725-1.104-3.372-1.628c-1.957-0.62-3.76-1.396-3.76-3.856
			c0-2.52,2.287-3.76,4.709-3.856c2.462,0,5.155,1.124,5.155,3.682c0,0.466-0.116,0.543-0.563,0.543h-1.898
			c-0.368,0-0.427-0.271-0.523-0.523c-0.077-0.193-0.175-0.349-0.407-0.581c-0.368-0.349-1.065-0.523-1.647-0.523
			c-0.639,0-1.705,0.252-1.705,1.124c0,1.183,2.849,1.608,3.624,1.919C120.514,49.129,122.567,49.691,122.567,52.326z"/>
		<path fill="#FFFFFF" d="M134.017,43.916v1.608c0,0.349-0.116,0.563-0.562,0.563h-2.965v9.457c0,0.445-0.213,0.562-0.563,0.562
			h-1.918c-0.349,0-0.563-0.116-0.563-0.562v-9.457h-2.984c-0.445,0-0.562-0.214-0.562-0.563v-1.608
			c0-0.349,0.116-0.562,0.562-0.562h8.992C133.9,43.354,134.017,43.567,134.017,43.916z"/>
		<path fill="#FFFFFF" d="M146.048,43.916v8.294c0,3.043-2.829,4.187-5.136,4.187c-2.306,0-5.115-1.144-5.115-4.187v-8.294
			c0-0.445,0.213-0.562,0.562-0.562h1.919c0.349,0,0.562,0.116,0.562,0.562v7.868c0,1.221,0.795,1.918,2.073,1.918
			c1.279,0,2.094-0.697,2.094-1.918v-7.868c0-0.445,0.213-0.562,0.562-0.562h1.919C145.835,43.354,146.048,43.471,146.048,43.916z"
			/>
		<path fill="#FFFFFF" d="M158.872,47.715v4.03c0,3.043-2.907,4.36-5.213,4.36h-4.341c-0.445,0-0.563-0.213-0.563-0.562V43.916
			c0-0.349,0.117-0.562,0.563-0.562h4.341C155.965,43.354,158.872,44.691,158.872,47.715z M155.829,47.985
			c0-1.221-0.891-1.938-2.17-1.938h-1.86v7.364h1.86c1.279,0,2.17-0.698,2.17-1.938V47.985z"/>
		<path fill="#FFFFFF" d="M167.453,54.013v1.531c0,0.349-0.116,0.562-0.562,0.562h-5.484c-0.445,0-0.562-0.213-0.562-0.562v-1.531
			c0-0.349,0.116-0.563,0.562-0.563h1.221v-7.402h-1.182c-0.446,0-0.563-0.213-0.563-0.562v-1.57c0-0.349,0.116-0.562,0.563-0.562
			h5.387c0.446,0,0.563,0.213,0.563,0.562v1.57c0,0.349-0.116,0.562-0.563,0.562h-1.162v7.402h1.221
			C167.337,53.45,167.453,53.664,167.453,54.013z"/>
		<path fill="#FFFFFF" d="M179.97,52.017c0,3.062-2.907,4.38-5.213,4.38c-2.307,0-5.175-1.318-5.175-4.38v-4.573
			c0-3.062,2.868-4.38,5.175-4.38c2.306,0,5.213,1.318,5.213,4.38V52.017z M176.927,47.715c0-1.24-0.892-1.958-2.17-1.958
			c-1.26,0-2.151,0.718-2.151,1.958v4.03c0,1.24,0.892,1.957,2.151,1.957c1.278,0,2.17-0.717,2.17-1.957V47.715z"/>
	</g>
</g>
<g>
</g>
<g>
</g>
<g>
</g>
<g>
</g>
<g>
</g>
<g>
</g>
<g>
</g>
<g>
</g>
<g>
</g>
<g>
</g>
<g>
</g>
<g>
</g>
<g>
</g>
<g>
</g>
<g>
</g>
</svg>
