<?xml version="1.0" encoding="utf-8"?>
<!-- Generator: Adobe Illustrator 16.0.0, SVG Export Plug-In . SVG Version: 6.00 Build 0)  -->
<!DOCTYPE svg PUBLIC "-//W3C//DTD SVG 1.0//EN" "http://www.w3.org/TR/2001/REC-SVG-20010904/DTD/svg10.dtd">
<svg version="1.0" id="Layer_1" xmlns="http://www.w3.org/2000/svg" xmlns:xlink="http://www.w3.org/1999/xlink" x="0px" y="0px"
	 width="33.559px" height="38.723px" viewBox="0 0 33.559 38.723" enable-background="new 0 0 33.559 38.723" xml:space="preserve">
<g>
	<path fill="rgb(99, 153, 229)" d="M13.053,9.313h3.137v13.612l1.388,1.141V9.313h3.145c0.214,0,0.389-0.215,0.389-0.476V8.712
		c0-0.264-0.175-0.478-0.389-0.478H17.44c2.021-0.276,3.589-1.995,3.589-4.089C21.029,1.86,19.17,0,16.885,0
		c-2.286,0-4.146,1.86-4.146,4.146c0,2.094,1.569,3.813,3.589,4.089h-3.274c-0.214,0-0.39,0.214-0.39,0.478v0.125
		C12.663,9.098,12.839,9.313,13.053,9.313z M13.892,4.146c0-1.652,1.343-2.993,2.993-2.993c1.648,0,2.994,1.341,2.994,2.993
		c0,1.65-1.346,2.992-2.994,2.992C15.234,7.138,13.892,5.796,13.892,4.146z"/>
	<path fill="rgb(99, 153, 229)" d="M33.559,18.339c0-1.963-0.356-3.841-0.98-5.592l-0.233,0.11c-0.294,3.637-1.879,4.627-1.879,4.627
		l-0.011,0.486c1.685-0.063,1.888,1.235,1.854,2.033c-0.686,6.168-5.063,10.848-11.008,12.428c-0.575,0.03-1.661-0.023-2.507-0.716
		c-0.563-0.457-1.091-2.398-1.217-5.155v-5.396h-1.388v0.69v4.621c0,3.148-0.563,4.593-1.354,5.239
		c-0.885,0.728-2.04,0.752-2.59,0.715C6.307,30.845,1.934,26.169,1.249,20.004c-0.033-0.798,0.168-2.096,1.854-2.033l-0.013-0.486
		c0,0-1.586-0.99-1.878-4.627l-0.235-0.11C0.355,14.498,0,16.376,0,18.339c0,7.645,5.148,14.104,12.152,16.116
		c1.059,0.373,3.863,1.595,4.541,4.268h0.486c0.643-2.901,4.767-4.419,4.767-4.419L21.933,34.3
		C28.669,32.119,33.559,25.792,33.559,18.339z"/>
</g>
<g>
</g>
<g>
</g>
<g>
</g>
<g>
</g>
<g>
</g>
<g>
</g>
<g>
</g>
<g>
</g>
<g>
</g>
<g>
</g>
<g>
</g>
<g>
</g>
<g>
</g>
<g>
</g>
<g>
</g>
</svg>
