<?xml version="1.0" encoding="utf-8"?>
<!-- Generator: Adobe Illustrator 16.0.0, SVG Export Plug-In . SVG Version: 6.00 Build 0)  -->
<svg version="1.2" baseProfile="tiny" id="Layer_1" xmlns="http://www.w3.org/2000/svg" xmlns:xlink="http://www.w3.org/1999/xlink"
	 x="0px" y="0px" width="123.762px" height="157.666px" viewBox="0 0 123.762 157.666" xml:space="preserve">
<g>
	<path fill="#67BBD9" d="M123.762,35.651H89.947v2.082c13.769,8.187,23.535,21.978,23.535,42.719
		c0,27.844-19.484,48.04-46.793,50.172V9.021H89.29V0H34.482v9.021h22.59v121.603c-27.309-2.126-46.788-22.323-46.788-50.172
		c0-20.742,9.75-34.533,23.519-42.719v-2.082H0v1.92l9.745,8.877C3.479,56.032,0,66.845,0,79.4c0,31.088,18.555,53.517,44,60.657
		c2.393,1.358,11.459,6.973,17.286,17.609h2.204c6.45-11.815,17.225-17.703,18.121-18.193c24.488-7.68,42.152-29.747,42.152-60.072
		c0-12.372-3.662-23.19-9.762-32.774l9.762-9.055V35.651z"/>
</g>
<g>
</g>
<g>
</g>
<g>
</g>
<g>
</g>
<g>
</g>
<g>
</g>
<g>
</g>
<g>
</g>
<g>
</g>
<g>
</g>
<g>
</g>
<g>
</g>
<g>
</g>
<g>
</g>
<g>
</g>
</svg>
