<?xml version="1.0" encoding="utf-8"?>
<!-- Generator: Adobe Illustrator 16.0.0, SVG Export Plug-In . SVG Version: 6.00 Build 0)  -->
<!DOCTYPE svg PUBLIC "-//W3C//DTD SVG 1.0//EN" "http://www.w3.org/TR/2001/REC-SVG-20010904/DTD/svg10.dtd">
<svg version="1.0" id="Layer_1" xmlns="http://www.w3.org/2000/svg" xmlns:xlink="http://www.w3.org/1999/xlink" x="0px" y="0px"
	 width="319.708px" height="87.552px" viewBox="0 0 319.708 57.552" enable-background="new 0 0 319.708 57.552"
	 xml:space="preserve">
<path fill="none" stroke="#FFFFFF" stroke-width="2" stroke-miterlimit="10" d="M140.057,18.095v-3.673
	C140.057,7.041,146.098,1,153.479,1h82.026c7.382,0,13.423,6.041,13.423,13.422v15.673"/>
<g>
	<g>
		<path fill="#FFFFFF" d="M100.415,37.913c0.361-7.081,5.699-12.798,12.983-12.798c2.655,0,5.31,0,7.965,0
			c6.231,0,12.462,0,18.694,0c0.806,0,0.806-1.25,0-1.25c-7.611,0-15.222,0-22.833,0c-3.177,0-6.588-0.282-9.539,1.145
			c-5.234,2.531-8.225,7.101-8.521,12.904C99.124,38.718,100.374,38.714,100.415,37.913L100.415,37.913z"/>
	</g>
</g>
<g>
	<g>
		<path fill="#FFFFFF" d="M56.229,47.952c14.52,0,29.04,0,43.56,0c0.806,0,0.806-1.25,0-1.25c-14.52,0-29.04,0-43.56,0
			C55.423,46.702,55.423,47.952,56.229,47.952L56.229,47.952z"/>
	</g>
</g>
<g>
	<g>
		<path fill="#FFFFFF" d="M36.854,47.952c3.667,0,7.333,0,11,0c0.806,0,0.806-1.25,0-1.25c-3.667,0-7.333,0-11,0
			C36.048,46.702,36.048,47.952,36.854,47.952L36.854,47.952z"/>
	</g>
</g>
<g>
	<g>
		<path fill="#FFFFFF" d="M0.604,57.552c40.206,0,80.411,0,120.616,0c58.403,0,116.806,0,175.209,0c7.559,0,15.116,0,22.675,0
			c0.806,0,0.806-1.25,0-1.25c-40.205,0-80.411,0-120.616,0c-58.403,0-116.806,0-175.209,0c-7.558,0-15.117,0-22.675,0
			C-0.202,56.302-0.202,57.552,0.604,57.552L0.604,57.552z"/>
	</g>
</g>
<g>
	<g>
		<path fill="#FFFFFF" d="M79.842,38.676c25.254,0,50.508,0,75.762,0c0.806,0,0.806-1.25,0-1.25c-25.254,0-50.508,0-75.762,0
			C79.036,37.426,79.036,38.676,79.842,38.676L79.842,38.676z"/>
	</g>
</g>
<g>
	<g>
		<path fill="#FFFFFF" d="M67.025,38.676c2.843,0,5.686,0,8.529,0c0.806,0,0.806-1.25,0-1.25c-2.843,0-5.686,0-8.529,0
			C66.219,37.426,66.219,38.676,67.025,38.676L67.025,38.676z"/>
	</g>
</g>
<g>
	<g>
		<path fill="#FFFFFF" d="M165.358,38.676c5.193,0,10.387,0,15.58,0c0.806,0,0.806-1.25,0-1.25c-5.193,0-10.387,0-15.58,0
			C164.553,37.426,164.553,38.676,165.358,38.676L165.358,38.676z"/>
	</g>
</g>
<g>
	<g>
		<path fill="#FFFFFF" d="M59.941,38.676c1.025,0,2.05,0,3.076,0c0.806,0,0.806-1.25,0-1.25c-1.025,0-2.05,0-3.076,0
			C59.135,37.426,59.135,38.676,59.941,38.676L59.941,38.676z"/>
	</g>
</g>
<g>
	<g>
		<path fill="#FFFFFF" d="M282.833,42.72c-21.743,0-43.485,0-65.229,0c-0.806,0-0.806,1.25,0,1.25c21.743,0,43.485,0,65.229,0
			C283.639,43.97,283.639,42.72,282.833,42.72L282.833,42.72z"/>
	</g>
</g>
<g>
	<g>
		<path fill="#FFFFFF" d="M304.149,42.72c-4.843,0-9.686,0-14.528,0c-0.806,0-0.806,1.25,0,1.25c4.843,0,9.686,0,14.528,0
			C304.955,43.97,304.955,42.72,304.149,42.72L304.149,42.72z"/>
	</g>
</g>
<g>
	<g>
		<path fill="#FFFFFF" d="M257.085,29.47c-5.438,0-10.875,0-16.313,0c-0.806,0-0.806,1.25,0,1.25c5.438,0,10.875,0,16.313,0
			C257.891,30.72,257.891,29.47,257.085,29.47L257.085,29.47z"/>
	</g>
</g>
<g>
	<g>
		<path fill="#FFFFFF" d="M232.418,29.47c-7.604,0-15.209,0-22.813,0c-0.806,0-0.806,1.25,0,1.25c7.604,0,15.209,0,22.813,0
			C233.224,30.72,233.224,29.47,232.418,29.47L232.418,29.47z"/>
	</g>
</g>
<g>
	<g>
		<path fill="#FFFFFF" d="M151.464,17.47c-7.604,0-15.209,0-22.813,0c-0.806,0-0.806,1.25,0,1.25c7.604,0,15.209,0,22.813,0
			C152.27,18.72,152.27,17.47,151.464,17.47L151.464,17.47z"/>
	</g>
</g>
<g>
	<g>
		<path fill="#FFFFFF" d="M123.437,17.47c-1.904,0-3.809,0-5.713,0c-0.806,0-0.806,1.25,0,1.25c1.904,0,3.809,0,5.713,0
			C124.243,18.72,124.243,17.47,123.437,17.47L123.437,17.47z"/>
	</g>
</g>
<g>
	<g>
		<path fill="#FFFFFF" d="M270.751,29.47c-2.049,0-4.098,0-6.146,0c-0.806,0-0.806,1.25,0,1.25c2.049,0,4.098,0,6.146,0
			C271.557,30.72,271.557,29.47,270.751,29.47L270.751,29.47z"/>
	</g>
</g>
<g>
</g>
<g>
</g>
<g>
</g>
<g>
</g>
<g>
</g>
<g>
</g>
<g>
</g>
<g>
</g>
<g>
</g>
<g>
</g>
<g>
</g>
<g>
</g>
<g>
</g>
<g>
</g>
<g>
</g>
</svg>
