<?xml version="1.0" encoding="utf-8"?>
<!-- Generator: Adobe Illustrator 16.0.0, SVG Export Plug-In . SVG Version: 6.00 Build 0)  -->
<!DOCTYPE svg PUBLIC "-//W3C//DTD SVG 1.0//EN" "http://www.w3.org/TR/2001/REC-SVG-20010904/DTD/svg10.dtd">
<svg version="1.0" id="Layer_1" xmlns="http://www.w3.org/2000/svg" xmlns:xlink="http://www.w3.org/1999/xlink" x="0px" y="0px"
	 width="333.636px" height="47.766px" viewBox="0 0 333.636 47.766" enable-background="new 0 0 333.636 47.766"
	 xml:space="preserve">
<g>
	<g>
		<path fill="#FFFFFF" d="M100.414,28.125c0.361-7.081,5.7-12.798,12.983-12.798c2.655,0,5.31,0,7.965,0c6.231,0,12.463,0,18.694,0
			c0.806,0,0.806-1.25,0-1.25c-7.611,0-15.222,0-22.833,0c-3.177,0-6.588-0.282-9.539,1.145c-5.234,2.531-8.226,7.101-8.521,12.903
			C99.123,28.931,100.373,28.927,100.414,28.125L100.414,28.125z"/>
	</g>
</g>
<path fill="none" stroke="#FFFFFF" stroke-miterlimit="10" d="M129.789,14.267c0-10.964,3.405-13.708,10.787-13.708L233.904,0.5
	c0,0,8.938,0,8.938,7.309"/>
<g>
	<g>
		<path fill="#FFFFFF" d="M56.229,38.165c14.52,0,29.04,0,43.56,0c0.806,0,0.806-1.25,0-1.25c-14.52,0-29.04,0-43.56,0
			C55.423,36.915,55.423,38.165,56.229,38.165L56.229,38.165z"/>
	</g>
</g>
<g>
	<g>
		<path fill="#FFFFFF" d="M36.854,38.165c3.667,0,7.333,0,11,0c0.806,0,0.806-1.25,0-1.25c-3.667,0-7.333,0-11,0
			C36.048,36.915,36.048,38.165,36.854,38.165L36.854,38.165z"/>
	</g>
</g>
<g>
	<g>
		<path fill="#FFFFFF" d="M0.604,47.766c40.206,0,80.411,0,120.616,0c58.403,0,116.806,0,175.209,0c7.559,0,15.116,0,22.675,0
			c0.806,0,0.806-1.25,0-1.25c-40.205,0-80.411,0-120.616,0c-58.403,0-116.806,0-175.209,0c-7.558,0-15.117,0-22.675,0
			C-0.202,46.516-0.202,47.766,0.604,47.766L0.604,47.766z"/>
	</g>
</g>
<g>
	<g>
		<path fill="#FFFFFF" d="M79.842,28.89c10.937,0,21.874,0,32.811,0c0.806,0,0.806-1.25,0-1.25c-10.937,0-21.874,0-32.811,0
			C79.036,27.64,79.036,28.89,79.842,28.89L79.842,28.89z"/>
	</g>
</g>
<g>
	<g>
		<path fill="#FFFFFF" d="M67.025,28.89c2.843,0,5.686,0,8.528,0c0.806,0,0.806-1.25,0-1.25c-2.843,0-5.686,0-8.528,0
			C66.219,27.64,66.219,28.89,67.025,28.89L67.025,28.89z"/>
	</g>
</g>
<g>
	<g>
		<path fill="#FFFFFF" d="M59.941,28.89c1.025,0,2.051,0,3.076,0c0.806,0,0.806-1.25,0-1.25c-1.025,0-2.051,0-3.076,0
			C59.135,27.64,59.135,28.89,59.941,28.89L59.941,28.89z"/>
	</g>
</g>
<g>
	<g>
		<path fill="#FFFFFF" d="M282.832,32.934c-32.172,0-64.345,0-96.517,0c-0.806,0-0.806,1.25,0,1.25c32.172,0,64.345,0,96.517,0
			C283.638,34.184,283.638,32.934,282.832,32.934L282.832,32.934z"/>
	</g>
</g>
<g>
	<g>
		<path fill="#FFFFFF" d="M177.029,32.934c-5.25,0-10.5,0-15.75,0c-0.806,0-0.806,1.25,0,1.25c5.25,0,10.5,0,15.75,0
			C177.835,34.184,177.835,32.934,177.029,32.934L177.029,32.934z"/>
	</g>
</g>
<g>
	<g>
		<path fill="#FFFFFF" d="M276.779,23.684c-10.161,0-20.323,0-30.484,0c-0.806,0-0.806,1.25,0,1.25c10.161,0,20.323,0,30.484,0
			C277.585,24.934,277.585,23.684,276.779,23.684L276.779,23.684z"/>
	</g>
</g>
<g>
	<g>
		<path fill="#FFFFFF" d="M320.105,23.684c-10.161,0-20.323,0-30.484,0c-0.806,0-0.806,1.25,0,1.25c10.161,0,20.323,0,30.484,0
			C320.911,24.934,320.911,23.684,320.105,23.684L320.105,23.684z"/>
	</g>
</g>
<g>
	<g>
		<path fill="#FFFFFF" d="M333.031,32.934c-14.47,0-28.94,0-43.41,0c-0.806,0-0.806,1.25,0,1.25c14.47,0,28.94,0,43.41,0
			C333.837,34.184,333.837,32.934,333.031,32.934L333.031,32.934z"/>
	</g>
</g>
<g>
	<g>
		<path fill="#FFFFFF" d="M278.908,13.184c-21.742,0-43.485,0-65.228,0c-0.806,0-0.806,1.25,0,1.25c21.742,0,43.485,0,65.228,0
			C279.714,14.434,279.714,13.184,278.908,13.184L278.908,13.184z"/>
	</g>
</g>
<g>
	<g>
		<path fill="#FFFFFF" d="M300.227,13.184c-4.843,0-9.687,0-14.529,0c-0.806,0-0.806,1.25,0,1.25c4.843,0,9.687,0,14.529,0
			C301.032,14.434,301.032,13.184,300.227,13.184L300.227,13.184z"/>
	</g>
</g>
<g>
	<g>
		<path fill="#FFFFFF" d="M248.002,7.621c-2.94,0-5.88,0-8.82,0c-0.806,0-0.806,1.25,0,1.25c2.94,0,5.88,0,8.82,0
			C248.808,8.871,248.808,7.621,248.002,7.621L248.002,7.621z"/>
	</g>
</g>
<g>
	<g>
		<path fill="#FFFFFF" d="M263.502,7.621c-2.94,0-5.88,0-8.82,0c-0.806,0-0.806,1.25,0,1.25c2.94,0,5.88,0,8.82,0
			C264.308,8.871,264.308,7.621,263.502,7.621L263.502,7.621z"/>
	</g>
</g>
<g>
</g>
<g>
</g>
<g>
</g>
<g>
</g>
<g>
</g>
<g>
</g>
<g>
</g>
<g>
</g>
<g>
</g>
<g>
</g>
<g>
</g>
<g>
</g>
<g>
</g>
<g>
</g>
<g>
</g>
</svg>
