<?xml version="1.0" encoding="utf-8"?>
<!-- Generator: Adobe Illustrator 16.0.0, SVG Export Plug-In . SVG Version: 6.00 Build 0)  -->
<!DOCTYPE svg PUBLIC "-//W3C//DTD SVG 1.1//EN" "http://www.w3.org/Graphics/SVG/1.1/DTD/svg11.dtd">
<svg version="1.1" id="Layer_1" xmlns="http://www.w3.org/2000/svg" xmlns:xlink="http://www.w3.org/1999/xlink" x="0px" y="0px"
	 width="91.813px" height="64.096px" viewBox="79.439 93.442 91.813 64.096" enable-background="new 79.439 93.442 91.813 64.096"
	 xml:space="preserve">
<g>
	<path fill="none" stroke="#262626" stroke-miterlimit="10" d="M135.46,119.127c-2.526-7.548-8.599-9.509-8.599-9.509H86.542
		c0,0,9.682,3.128,9.682,16.683v19.365c0,0,0.1,11.371,11.371,11.371h7.549h32.771c-11.271,0-11.371-11.371-11.371-11.371v-11.81"/>
	<path fill="none" stroke="#262626" stroke-miterlimit="10" d="M127.628,135.465c0,0-2.33-7.252,2.187-11.801l20.832-16.735
		l-0.238,3.023l1.045-3.894l7.547-5.194c0,0,6.715-1.612,10.846-5.438c0,0-5.492,12.655-13.154,19.168l-15.1,16.487
		c0,0-5.248,3.892-9.775,3.779"/>
	<line fill="none" stroke="#262626" stroke-miterlimit="10" x1="118.26" y1="144.375" x2="160.23" y2="104.621"/>
	<path fill="none" stroke="#262626" stroke-miterlimit="10" d="M91.825,147.334h-0.179c-1.538,0-2.1-4.729-2.183-5.527
		c0.385-0.217,0.615-0.492,0.615-0.794c0-0.692-1.224-1.253-2.731-1.253c-0.006,0-0.012,0-0.016,0c-0.007,0-0.012,0-0.018,0
		c-1.508,0-2.731,0.561-2.731,1.253c0,0.302,0.23,0.577,0.615,0.794c-0.083,0.8-0.645,5.527-2.183,5.527h-0.18
		c-0.895,0-2.597,0.269-2.597,2.192v6c0,0.44,0.353,0.8,0.792,0.806c0.001,0,0.001,0.002,0.002,0.002h0.012h12.571h0.013
		c0.001,0,0.001-0.002,0.002-0.002c0.439-0.006,0.792-0.363,0.792-0.806v-6C94.423,147.603,92.722,147.334,91.825,147.334z"/>
	<path fill="none" stroke="#262626" stroke-miterlimit="10" d="M86.566,109.626h-0.154c0,0-6.473-0.973-6.473,8.507h14.783
		C92.4,111.58,86.941,109.754,86.566,109.626z"/>
	<line fill="none" stroke="#262626" stroke-miterlimit="10" x1="88.528" y1="110.595" x2="88.528" y2="117.853"/>
	<line fill="none" stroke="#262626" stroke-miterlimit="10" x1="90.516" y1="112.057" x2="90.516" y2="117.853"/>
	<line fill="none" stroke="#262626" stroke-miterlimit="10" x1="92.48" y1="114.13" x2="92.48" y2="117.853"/>
	<line fill="none" stroke="#262626" stroke-miterlimit="10" x1="82.611" y1="110.706" x2="82.611" y2="117.853"/>
	<line fill="none" stroke="#262626" stroke-miterlimit="10" x1="84.599" y1="109.901" x2="84.599" y2="117.853"/>
	<line fill="none" stroke="#262626" stroke-miterlimit="10" x1="86.563" y1="109.598" x2="86.563" y2="117.853"/>
</g>
</svg>
