<?xml version="1.0" encoding="utf-8"?>
<!-- Generator: Adobe Illustrator 16.0.0, SVG Export Plug-In . SVG Version: 6.00 Build 0)  -->
<!DOCTYPE svg PUBLIC "-//W3C//DTD SVG 1.1//EN" "http://www.w3.org/Graphics/SVG/1.1/DTD/svg11.dtd">
<svg version="1.1" id="Layer_1" xmlns="http://www.w3.org/2000/svg" xmlns:xlink="http://www.w3.org/1999/xlink" x="0px" y="0px"
	 width="67.771px" height="53.573px" viewBox="91.87 98.284 67.771 53.573" enable-background="new 91.87 98.284 67.771 53.573"
	 xml:space="preserve">
<g>
	<g>
		<path fill="#262626" d="M109.354,120.873l12.638-6.51v1.88l-10.649,5.338v0.055l10.649,5.339v1.879l-12.638-6.51V120.873z"/>
		<path fill="#262626" d="M141.496,122.371l-12.637,6.482v-1.879l10.729-5.339v-0.055l-10.729-5.338v-1.88l12.637,6.482V122.371z"/>
	</g>
	<g>
		<g>
			<path fill="none" stroke="#262626" stroke-miterlimit="10" d="M92.37,137.439c0,1.649,1.35,3,3,3h60.771c1.649,0,3-1.351,3-3
				v-35.655c0-1.65-1.351-3-3-3H95.37c-1.65,0-3,1.35-3,3V137.439z"/>
		</g>
		<g>
			<path fill="none" stroke="#262626" stroke-miterlimit="10" d="M95.935,133.499c0,1.649,1.35,3,3,3h53.379c1.649,0,3-1.351,3-3
				V105.62c0-1.65-1.351-3-3-3H98.935c-1.65,0-3,1.35-3,3V133.499z"/>
		</g>
		<path fill="none" stroke="#262626" stroke-width="0.75" stroke-miterlimit="10" d="M130.464,150.264c0,0-1.825-1.479-1.825-5.129
			c0-3.651,1.825-4.695,1.825-4.695h-4.782h-0.521h-4.783c0,0,1.827,1.044,1.827,4.695c0,3.65-1.827,5.129-1.827,5.129h-5.737v1.218
			h22.082v-1.218H130.464z"/>
		<g>
			
				<line fill="none" stroke="#262626" stroke-width="0.5" stroke-miterlimit="10" x1="121.583" y1="140.439" x2="121.583" y2="141.948"/>
			
				<line fill="none" stroke="#262626" stroke-width="0.5" stroke-miterlimit="10" x1="122.829" y1="140.439" x2="122.829" y2="142.991"/>
			
				<line fill="none" stroke="#262626" stroke-width="0.5" stroke-miterlimit="10" x1="124.074" y1="140.439" x2="124.074" y2="142.991"/>
			
				<line fill="none" stroke="#262626" stroke-width="0.5" stroke-miterlimit="10" x1="125.349" y1="140.439" x2="125.349" y2="142.991"/>
			
				<line fill="none" stroke="#262626" stroke-width="0.5" stroke-miterlimit="10" x1="126.596" y1="140.439" x2="126.596" y2="142.991"/>
			
				<line fill="none" stroke="#262626" stroke-width="0.5" stroke-miterlimit="10" x1="127.841" y1="140.439" x2="127.841" y2="142.991"/>
			
				<line fill="none" stroke="#262626" stroke-width="0.5" stroke-miterlimit="10" x1="129.087" y1="140.439" x2="129.087" y2="142.358"/>
		</g>
	</g>
</g>
</svg>
